<?xml version="1.0" encoding="UTF-8" standalone="no"?>
<!-- Created with Inkscape (http://www.inkscape.org/) -->

<svg
   version="1.1"
   id="svg81"
   width="1835.7543"
   height="537.08838"
   viewBox="0 0 1835.7543 537.08838"
   sodipodi:docname="g1656.svg"
   inkscape:version="1.1 (1:1.1+202105261517+ce6663b3b7)"
   xmlns:inkscape="http://www.inkscape.org/namespaces/inkscape"
   xmlns:sodipodi="http://sodipodi.sourceforge.net/DTD/sodipodi-0.dtd"
   xmlns="http://www.w3.org/2000/svg"
   xmlns:svg="http://www.w3.org/2000/svg">
  <defs
     id="defs85" />
  <sodipodi:namedview
     id="namedview83"
     pagecolor="#ffffff"
     bordercolor="#666666"
     borderopacity="1.0"
     inkscape:pageshadow="2"
     inkscape:pageopacity="0.0"
     inkscape:pagecheckerboard="0"
     showgrid="false"
     fit-margin-top="0"
     fit-margin-left="0"
     fit-margin-right="0"
     fit-margin-bottom="0"
     inkscape:zoom="0.57843137"
     inkscape:cx="541.11864"
     inkscape:cy="384.66102"
     inkscape:window-width="1872"
     inkscape:window-height="1016"
     inkscape:window-x="48"
     inkscape:window-y="27"
     inkscape:window-maximized="1"
     inkscape:current-layer="g87" />
  <g
     inkscape:groupmode="layer"
     inkscape:label="Image"
     id="g87"
     transform="translate(25.826749,69.358012)">
    <g
       id="g1656"
       transform="translate(7.8563784,-597.12941)"
       inkscape:export-filename="/home/bashud/Imágenes/g1656.svg"
       inkscape:export-xdpi="96"
       inkscape:export-ydpi="96">
      <path
         style="fill:#b0cede;stroke-width:1.33333"
         d="m 212.10736,1064.8529 c -1.55327,-0.064 -1.8692,-0.3799 -0.80556,-0.8055 0.96249,-0.3852 2.11249,-0.3378 2.55556,0.1052 0.44305,0.443 -0.34445,0.7582 -1.75,0.7003 z m 45.33333,0 c -1.55326,-0.064 -1.8692,-0.3799 -0.80556,-0.8055 0.9625,-0.3852 2.1125,-0.3378 2.55556,0.1052 0.44306,0.443 -0.34445,0.7582 -1.75,0.7003 z m 186.11111,-0.1052 c -1.83333,0 -2.58333,-0.3027 -1.66667,-0.6725 0.91667,-0.3699 2.41667,-0.3699 3.33334,0 0.91666,0.3698 0.16666,0.6725 -1.66667,0.6725 z m -31.33333,-1.5042 c -3.66667,-0.011 -5.00842,-0.2689 -2.98167,-0.5754 2.02675,-0.3065 5.02675,-0.2983 6.66667,0.018 1.63992,0.3165 -0.0184,0.5672 -3.685,0.5572 z m -49.33334,-1.3333 c -3.66666,-0.011 -5.00841,-0.269 -2.98166,-0.5754 2.02674,-0.3065 5.02674,-0.2983 6.66666,0.018 1.63992,0.3165 -0.0184,0.5672 -3.685,0.5572 z m 89.17008,0.3813 c -0.27688,0 -0.50341,-0.2265 -0.50341,-0.5034 0,-0.2769 1.05,-1.3269 2.33333,-2.3333 2.11475,-1.6585 2.16191,-1.6114 0.50342,0.5034 -1.00647,1.2833 -2.05647,2.3333 -2.33334,2.3333 z m -138.50341,-1.7147 c -3.66667,-0.011 -5.00841,-0.2689 -2.98167,-0.5754 2.02675,-0.3065 5.02675,-0.2983 6.66667,0.018 1.63992,0.3164 -0.0184,0.5672 -3.685,0.5572 z M 59.048395,1000.9582 c -0.276875,0 -1.326875,-1.05001 -2.333334,-2.33334 -1.658494,-2.11475 -1.611334,-2.16191 0.503407,-0.50341 1.283333,1.00646 2.333333,2.05645 2.333333,2.33335 0,0.2769 -0.226533,0.5034 -0.503406,0.5034 z M 33.715061,975.62486 c -0.276874,0 -1.326874,-1.05 -2.333333,-2.33333 -1.658495,-2.11475 -1.611335,-2.16191 0.503407,-0.50342 1.283333,1.00647 2.333333,2.05647 2.333333,2.33334 0,0.27688 -0.226533,0.50341 -0.503407,0.50341 z M 231.5518,935.17658 c -5.5,0 -7.75,-0.23534 -5,-0.52301 2.75,-0.28765 7.25,-0.28765 10,0 2.75,0.28767 0.5,0.52301 -5,0.52301 z m -124.40511,-0.88505 c -0.22281,0 -2.47281,-2.25 -5,-5 l -4.594889,-5 4.999999,4.59489 c 2.75,2.52719 5,4.77719 5,5 0,0.22282 -0.18229,0.40511 -0.40511,0.40511 z m 257.9918,-2.66667 c -0.36666,0 0.41932,-1.2 1.74664,-2.66666 1.32732,-1.46667 2.71331,-2.66667 3.07998,-2.66667 0.36666,0 -0.41932,1.2 -1.74664,2.66667 -1.32732,1.46666 -2.71331,2.66666 -3.07998,2.66666 z m -38.50281,-33.33333 c -0.22947,0 -0.41721,-0.18775 -0.41721,-0.41721 0,-0.22947 1.95,-2.17947 4.33333,-4.33334 l 4.33333,-3.91612 -3.91612,4.33334 c -2.15386,2.38333 -4.10386,4.33333 -4.33333,4.33333 z m 445.11795,-9.33333 c -0.36667,0 0.7425,-1.5 2.46484,-3.33334 1.72233,-1.83333 3.4315,-3.33333 3.79817,-3.33333 0.36667,0 -0.74251,1.5 -2.46484,3.33333 -1.72233,1.83334 -3.43151,3.33334 -3.79817,3.33334 z m 828.67147,-4 c -0.253,0 -1.603,-1.35 -3,-3 l -2.54,-3 3,2.53998 c 1.65,1.39699 3,2.74699 3,3 0,0.253 -0.207,0.46002 -0.46,0.46002 z M 702.88513,869.87837 c -4.4,-0.008 -6.03925,-0.2564 -3.64278,-0.55314 2.39646,-0.29675 5.99646,-0.29063 8,0.0136 2.00353,0.30424 0.0428,0.54702 -4.35722,0.53954 z m 981.33337,-1.33333 c -4.4,-0.008 -6.0392,-0.2564 -3.6428,-0.55315 2.3965,-0.29674 5.9965,-0.29062 8,0.0136 2.0036,0.30424 0.043,0.54703 -4.3572,0.53955 z M 743.02403,840.59709 c -0.44306,0.44306 -0.75819,-0.34445 -0.7003,-1.75 0.064,-1.55326 0.37992,-1.8692 0.80555,-0.80556 0.38516,0.9625 0.3378,2.1125 -0.1052,2.55556 z M 49.768176,821.29153 c -0.369884,0.91667 -0.672515,0.16667 -0.672515,-1.66666 0,-1.83334 0.302631,-2.58334 0.672515,-1.66667 0.369883,0.91667 0.369883,2.41667 0,3.33333 z m -82.744152,-0.69444 c -0.443056,0.44306 -0.758188,-0.34445 -0.700293,-1.75 0.06398,-1.55326 0.379921,-1.8692 0.805556,-0.80556 0.385161,0.9625 0.337792,2.1125 -0.105263,2.55556 z m 536.000006,-2.66666 c -0.44306,0.44305 -0.75819,-0.34446 -0.7003,-1.75 0.064,-1.55327 0.37992,-1.8692 0.80555,-0.80556 0.38516,0.96249 0.3378,2.11249 -0.1052,2.55556 z m -81.33334,-2.66667 c -0.44305,0.44305 -0.75818,-0.34445 -0.70029,-1.75 0.064,-1.55327 0.37992,-1.8692 0.80555,-0.80556 0.38516,0.96249 0.3378,2.11249 -0.1052,2.55556 z M 48.533103,804.00688 c -0.268408,3.82323 -0.485554,0.35132 -0.482546,-7.71535 0.0031,-8.06666 0.222615,-11.19475 0.488015,-6.95131 0.2654,4.24344 0.262939,10.84343 -0.0055,14.66666 z m 45.31656,-2.71535 c -0.29577,2.38334 -0.537763,0.43334 -0.537763,-4.33333 0,-4.76666 0.241993,-6.71666 0.537763,-4.33333 0.295768,2.38333 0.295768,6.28333 0,8.66666 z M 1568.4349,803.9582 c -0.3699,0.91667 -0.6726,0.16667 -0.6726,-1.66667 0,-1.83333 0.3027,-2.58333 0.6726,-1.66666 0.3698,0.91666 0.3698,2.41666 0,3.33333 z m 233.2558,-3.36111 c -0.443,0.44306 -0.7582,-0.34445 -0.7004,-1.75 0.064,-1.55326 0.38,-1.8692 0.8056,-0.80556 0.3852,0.9625 0.3379,2.1125 -0.1053,2.55556 z m -53.3333,-4 c -0.4431,0.44306 -0.7583,-0.34445 -0.7004,-1.74999 0.064,-1.55327 0.38,-1.8692 0.8056,-0.80556 0.3852,0.96249 0.3379,2.11249 -0.1053,2.55555 z m -676,-1.33333 c -0.4431,0.44306 -0.7582,-0.34445 -0.7003,-1.75 0.064,-1.55326 0.3799,-1.8692 0.8055,-0.80556 0.3852,0.9625 0.3378,2.1125 -0.1052,2.55556 z m 549.4023,-0.61352 c -0.3652,0.90271 -0.6418,-0.1587 -0.6147,-2.3587 0.027,-2.2 0.326,-2.93859 0.6641,-1.6413 0.338,1.2973 0.3159,3.0973 -0.049,4 z m -549.4023,-12.71981 c -0.4431,0.44305 -0.7582,-0.34445 -0.7003,-1.75 0.064,-1.55327 0.3799,-1.8692 0.8055,-0.80556 0.3852,0.96249 0.3378,2.11249 -0.1052,2.55556 z M 421.69069,780.5971 c -0.44305,0.44305 -0.75818,-0.34446 -0.70029,-1.75 0.064,-1.55327 0.37992,-1.8692 0.80555,-0.80556 0.38516,0.96249 0.3378,2.11249 -0.1052,2.55556 z m 81.33334,-2.66667 c -0.44306,0.44305 -0.75819,-0.34445 -0.7003,-1.75 0.064,-1.55327 0.37992,-1.8692 0.80555,-0.80556 0.38516,0.96249 0.3378,2.11249 -0.1052,2.55556 z m 1118.73567,-1.94685 c -0.3652,0.9027 -0.6418,-0.15871 -0.6147,-2.35871 0.027,-2.2 0.326,-2.93859 0.6641,-1.64129 0.338,1.29729 0.3159,3.09729 -0.049,4 z M -32.975976,775.26376 c -0.443056,0.44306 -0.758188,-0.34445 -0.700293,-1.75 0.06398,-1.55326 0.379921,-1.8692 0.805556,-0.80556 0.385161,0.9625 0.337792,2.1125 -0.105263,2.55556 z m 82.666667,-1.33333 c -0.443056,0.44305 -0.758188,-0.34445 -0.700294,-1.75 0.06397,-1.55327 0.379922,-1.8692 0.805556,-0.80556 0.385162,0.96249 0.337792,2.11249 -0.105266,2.55556 z M 1748.4349,770.62487 c -0.3699,0.91667 -0.6726,0.16667 -0.6726,-1.66667 0,-1.83333 0.3027,-2.58333 0.6726,-1.66666 0.3698,0.91666 0.3698,2.41666 0,3.33333 z m -180.0775,-0.69444 c -0.4431,0.44305 -0.7583,-0.34445 -0.7004,-1.75 0.064,-1.55327 0.38,-1.8692 0.8056,-0.80556 0.3852,0.96249 0.3379,2.11249 -0.1053,2.55556 z M 51.024024,764.5971 c -0.443056,0.44305 -0.758188,-0.34446 -0.700293,-1.75 0.06397,-1.55327 0.379921,-1.8692 0.805556,-0.80556 0.385161,0.96249 0.337792,2.11249 -0.105267,2.55556 z M 1801.6907,761.93043 c -0.443,0.44305 -0.7582,-0.34445 -0.7004,-1.75 0.064,-1.55327 0.38,-1.8692 0.8056,-0.80556 0.3852,0.96249 0.3379,2.11249 -0.1053,2.55556 z m -70.5989,-46.30556 c -0.2531,0 -1.6031,-1.35 -3,-3 l -2.54,-3 3,2.53999 c 1.65,1.39699 3,2.74699 3,3 0,0.253 -0.2071,0.46001 -0.46,0.46001 z M 131.80516,700.95821 c -0.36667,0 0.41932,-1.2 1.74664,-2.66667 1.32732,-1.46667 2.71331,-2.66667 3.07997,-2.66667 0.36667,0 -0.41932,1.2 -1.74664,2.66667 -1.32732,1.46667 -2.7133,2.66667 -3.07997,2.66667 z m 650.04228,-4.97027 c -0.29455,2.36699 -0.53071,0.1036 -0.52479,-5.02973 0.005,-5.13334 0.24691,-7.06995 0.53555,-4.3036 0.28863,2.76636 0.28379,6.96636 -0.0107,9.33333 z m 903.70436,1.89044 c -4.4,-0.008 -6.0392,-0.2564 -3.6428,-0.55315 2.3965,-0.29674 5.9965,-0.29062 8,0.0136 2.0036,0.30424 0.043,0.54703 -4.3572,0.53955 z m -963.33333,-2.65305 c -4.03334,0 -5.68334,-0.24996 -3.66667,-0.55546 2.01667,-0.3055 5.31667,-0.3055 7.33333,0 2.01667,0.3055 0.36667,0.55546 -3.66666,0.55546 z m 355.54123,-12.57508 c -0.3652,0.9027 -0.6418,-0.15871 -0.6146,-2.35871 0.027,-2.2 0.326,-2.93859 0.664,-1.64129 0.3381,1.29729 0.3158,3.09729 -0.049,4 z M 31.969013,619.62488 c -0.229466,0 -0.417212,-0.18775 -0.417212,-0.41722 0,-0.22946 1.95,-2.17946 4.333334,-4.33333 l 4.333333,-3.91612 -3.916121,4.33333 c -2.153867,2.38334 -4.103867,4.33334 -4.333334,4.33334 z m 164.138347,-5.4386 c -1.55327,-0.064 -1.8692,-0.37992 -0.80556,-0.80556 0.96249,-0.38516 2.11249,-0.33779 2.55556,0.10527 0.44305,0.44306 -0.34445,0.75819 -1.75,0.70029 z m 236.31776,0.10526 c -0.25301,0 -1.60301,-1.35 -3,-3 l -2.53999,-3 3,2.53999 c 1.65,1.39699 3,2.74699 3,3 0,0.253 -0.20701,0.46001 -0.46001,0.46001 z m -229.65109,-1.43859 c -1.55327,-0.064 -1.8692,-0.37992 -0.80556,-0.80556 0.96249,-0.38516 2.11249,-0.33779 2.55556,0.10527 0.44305,0.44305 -0.34446,0.75819 -1.75,0.70029 z m 64,0 c -1.55327,-0.064 -1.8692,-0.37992 -0.80556,-0.80556 0.96249,-0.38516 2.11249,-0.33779 2.55556,0.10527 0.44305,0.44305 -0.34446,0.75819 -1.75,0.70029 z m -53.8889,-1.4386 c -1.83333,0 -2.58333,-0.30263 -1.66666,-0.67251 0.91666,-0.36989 2.41666,-0.36989 3.33333,0 0.91667,0.36988 0.16667,0.67251 -1.66667,0.67251 z m 45.33334,0 c -1.83334,0 -2.58334,-0.30263 -1.66667,-0.67251 0.91667,-0.36989 2.41667,-0.36989 3.33333,0 0.91667,0.36988 0.16667,0.67251 -1.66666,0.67251 z m -23.33334,-1.59608 c -6.6,-0.004 -9.13189,-0.23285 -5.62644,-0.50842 3.50547,-0.27557 8.90547,-0.27225 12,0.007 3.09455,0.27963 0.22644,0.5051 -6.37356,0.50104 z m 186.87332,-6.19339 c -0.25301,0 -1.60301,-1.35 -3,-3 l -2.53998,-3 3,2.53998 c 1.65,1.39699 3,2.74699 3,3 0,0.25301 -0.20702,0.46002 -0.46002,0.46002 z M 50.420297,600.95821 c -0.366666,0 0.742511,-1.5 2.464838,-3.33333 1.722326,-1.83334 3.431504,-3.33334 3.79817,-3.33334 0.366667,0 -0.74251,1.5 -2.464837,3.33334 -1.722327,1.83333 -3.431504,3.33333 -3.798171,3.33333 z M 219.5518,528.74769 c -1.83333,0 -2.58333,-0.30263 -1.66667,-0.67252 0.91667,-0.36988 2.41667,-0.36988 3.33334,0 0.91666,0.36989 0.16666,0.67252 -1.66667,0.67252 z m 30,-0.0494 c -2.2,-0.0272 -2.93859,-0.326 -1.64129,-0.66405 1.29729,-0.33806 3.09729,-0.31583 4,0.0494 0.9027,0.36523 -0.15871,0.64182 -2.35871,0.61465 z"
         id="path1674" />
      <path
         style="fill:#9db2c8;stroke-width:1.33333"
         d="m 361.38855,935.62486 c -0.27688,0 -0.50342,-0.22653 -0.50342,-0.50341 0,-0.27687 1.05,-1.32687 2.33334,-2.33333 2.11474,-1.6585 2.1619,-1.61134 0.50341,0.50341 -1.00647,1.28333 -2.05647,2.33333 -2.33333,2.33333 z m 9.33333,-9.33333 c -0.27688,0 -0.50341,-0.22653 -0.50341,-0.50341 0,-0.27687 1.05,-1.32687 2.33333,-2.33334 2.11475,-1.65849 2.16191,-1.61133 0.50341,0.50342 -1.00646,1.28333 -2.05646,2.33333 -2.33333,2.33333 z M 1664.1074,910.18626 c -1.5533,-0.064 -1.8692,-0.37992 -0.8056,-0.80554 0.9625,-0.38516 2.1125,-0.3378 2.5556,0.1052 0.4431,0.44305 -0.3445,0.75818 -1.75,0.70029 z m -590.3392,-8.89473 c -0.3699,0.91667 -0.6725,0.16667 -0.6725,-1.66667 0,-1.83333 0.3026,-2.58333 0.6725,-1.66666 0.3699,0.91666 0.3699,2.41666 0,3.33333 z m -934.71981,-1.66667 c -0.27687,0 -1.32687,-1.05 -2.33334,-2.33333 -1.65849,-2.11475 -1.61133,-2.16191 0.50342,-0.50341 1.28333,1.00646 2.33333,2.05646 2.33333,2.33333 0,0.27688 -0.22653,0.50341 -0.50341,0.50341 z m -6.66667,-6.66666 c -0.27687,0 -1.32687,-1.05 -2.33333,-2.33334 -1.6585,-2.11474 -1.61134,-2.1619 0.50341,-0.50341 1.28333,1.00647 2.33333,2.05647 2.33333,2.33333 0,0.27688 -0.22653,0.50342 -0.50341,0.50342 z M 1674.7741,868.85293 c -1.5534,-0.064 -1.8692,-0.37992 -0.8056,-0.80554 0.9625,-0.38516 2.1125,-0.3378 2.5556,0.1052 0.443,0.44305 -0.3446,0.75818 -1.75,0.70029 z m -53.0059,-68.89473 c -0.3699,0.91667 -0.6725,0.16667 -0.6725,-1.66667 0,-1.83333 0.3026,-2.58333 0.6725,-1.66666 0.3699,0.91666 0.3699,2.41666 0,3.33333 z m 126.5892,0.63889 c -0.4431,0.44306 -0.7583,-0.34445 -0.7004,-1.75 0.064,-1.55326 0.38,-1.8692 0.8056,-0.80556 0.3852,0.9625 0.3379,2.1125 -0.1053,2.55556 z m -179.8865,-2.63889 c -0.3354,1.28333 -0.6098,0.23333 -0.6098,-2.33333 0,-2.56667 0.2744,-3.61667 0.6098,-2.33333 0.3354,1.28333 0.3354,3.38333 0,4.66666 z m 233.2973,-2 c -0.3699,0.91667 -0.6725,0.16667 -0.6725,-1.66666 0,-1.83334 0.3026,-2.58334 0.6725,-1.66667 0.3699,0.91667 0.3699,2.41667 0,3.33333 z m -729.3003,-5.98445 c -0.3337,1.27479 -0.5947,-0.0823 -0.5799,-3.01555 0.015,-2.93333 0.2879,-3.97633 0.6068,-2.31778 0.3189,1.65854 0.3068,4.05854 -0.027,5.33333 z m -293.37611,-2.34888 c -0.25302,0 -1.60302,-1.35 -3,-3 l -2.53999,-3 3,2.53999 c 1.65,1.39698 3,2.74698 3,3 0,0.253 -0.20701,0.46001 -0.46001,0.46001 z m 789.33451,-11.64129 c -0.3652,0.9027 -0.6417,-0.15871 -0.6146,-2.35871 0.027,-2.2 0.326,-2.93859 0.6641,-1.64129 0.338,1.29729 0.3159,3.09729 -0.049,4 z m 53.2644,-6.05315 c -0.443,0.44305 -0.7582,-0.34445 -0.7004,-1.75 0.064,-1.55327 0.38,-1.8692 0.8056,-0.80556 0.3852,0.96249 0.3379,2.11249 -0.1053,2.55556 z m 180.0775,-3.30556 c -0.3699,0.91667 -0.6725,0.16667 -0.6725,-1.66667 0,-1.83333 0.3026,-2.58333 0.6725,-1.66666 0.3699,0.91666 0.3699,2.41666 0,3.33333 z M 699.04839,740.9582 c -0.27687,0 -1.32687,-1.05 -2.33334,-2.33333 -1.65849,-2.11475 -1.61133,-2.16191 0.50342,-0.50341 1.28333,1.00646 2.33333,2.05646 2.33333,2.33333 0,0.27688 -0.22653,0.50341 -0.50341,0.50341 z m -9.28022,-18.33333 c -0.36988,0.91667 -0.67252,0.16667 -0.67252,-1.66667 0,-1.83333 0.30264,-2.58333 0.67252,-1.66666 0.36988,0.91666 0.36988,2.41666 0,3.33333 z m 1005.00593,-24.4386 c -1.5534,-0.064 -1.8692,-0.37992 -0.8056,-0.80554 0.9625,-0.38516 2.1125,-0.3378 2.5556,0.1052 0.443,0.44306 -0.3446,0.75818 -1.75,0.70029 z M 97.010607,668.95821 c -0.366667,0 1.67687,-2.4 4.541193,-5.33334 2.86432,-2.93333 5.50787,-5.33333 5.87453,-5.33333 0.36667,0 -1.67688,2.4 -4.5412,5.33333 -2.86432,2.93334 -5.507857,5.33334 -5.874523,5.33334 z m 272.773603,-2.66667 c -0.23882,0 -1.88882,-1.65 -3.66666,-3.66667 l -3.23242,-3.66666 3.66667,3.23241 c 2.01667,1.77784 3.66667,3.42784 3.66667,3.66667 0,0.23884 -0.19542,0.43425 -0.43426,0.43425 z m 1299.65649,-9.43859 c -1.5533,-0.064 -1.8692,-0.37993 -0.8056,-0.80556 0.9626,-0.38516 2.1126,-0.33779 2.5556,0.10527 0.4431,0.44305 -0.3445,0.75818 -1.75,0.70029 z M 427.09179,608.95821 c -0.25302,0 -1.60302,-1.35 -3,-3 l -2.53999,-3 3,2.53998 c 1.65,1.39699 3,2.74699 3,3 0,0.25301 -0.20701,0.46002 -0.46001,0.46002 z"
         id="path1672" />
      <path
         style="fill:#26ccde;stroke-width:1.33333"
         d="m 234.3656,887.32376 c -6.26109,0.30665 -9.97144,-0.19322 -12.81083,-1.72594 -2.19836,-1.18668 -5.11221,-3.16605 -6.47521,-4.39861 -1.363,-1.23256 -3.61433,-4.46711 -5.00297,-7.18789 -2.20138,-4.31321 -2.52479,-8.02795 -2.52479,-29 V 820.9582 l -23,-0.0293 c -19.42608,-0.0248 -23.83731,-0.40963 -28.38849,-2.47694 -2.96367,-1.34621 -6.99062,-4.35166 -8.94876,-6.6788 -1.95815,-2.32712 -4.17998,-6.46249 -4.9374,-9.18972 -0.75743,-2.72722 -1.33484,-6.45859 -1.28315,-8.29193 0.0517,-1.83333 0.79836,-5.15474 1.65924,-7.38092 0.86088,-2.22618 2.46523,-5.26358 3.56523,-6.74978 1.1,-1.4862 3.99776,-4.16479 6.43946,-5.9524 4.23602,-3.10128 5.58022,-3.28078 29.33334,-3.9169 l 24.89386,-0.66666 0.66667,-24 c 0.52347,-18.84474 1.13855,-24.8599 2.86349,-28.00315 1.20826,-2.20173 3.33022,-5.02885 4.71547,-6.28248 1.38525,-1.25364 4.7274,-3.20222 7.42701,-4.33018 2.69962,-1.12798 7.43822,-2.05086 10.53024,-2.05086 3.09202,0 8.25088,1.2727 11.46414,2.8282 3.51372,1.70096 7.26862,4.98114 9.42096,8.22986 3.4727,5.24169 4.63737,5.817 4.77184,29.21523 l 0.14018,24.39343 29.85304,0.0317 c 15.14373,0.0161 20.5104,1.90118 22.14696,2.8536 1.46667,0.85356 4.71523,3.48214 6.69299,5.56192 1.97778,2.07977 4.09739,5.78356 5.23628,8.51 1.13891,2.72646 2.06739,6.32646 2.06329,8 -0.004,1.67356 -0.62714,5.2742 -1.38457,8.00143 -0.75743,2.72722 -2.97925,6.8626 -4.9374,9.18972 -1.95815,2.32713 -6.04632,5.20519 -8.94876,6.6788 -6.05263,3.073 -8.52543,3.59634 -27.50147,3.40587 l -23.2204,-0.23307 -0.66662,23.38655 c -0.60931,21.376 -0.29447,24.63033 -2.65436,29.25609 -1.4599,2.86163 -4.84368,6.87285 -7.51952,8.91381 -3.96878,3.02714 -6.48911,3.79039 -13.67899,4.14254 z M 60.233572,722.29154 c -0.773571,0 -10.693429,-5.60375 -22.044131,-12.45276 C 26.838739,702.98975 11.738424,693.86415 4.6331867,689.55966 l -12.918616,-7.82635 6.0481146,-11.71026 c 3.3264627,-6.44064 9.3552227,-16.66504 13.3972437,-22.72089 4.042022,-6.05584 10.733747,-15.17156 14.870502,-20.25714 4.136753,-5.08559 12.370241,-14.14801 18.296637,-20.1387 5.926397,-5.9907 15.484445,-14.63439 21.240107,-19.2082 5.755661,-4.57381 14.85177,-11.27629 20.213577,-14.8944 5.361805,-3.61811 15.903758,-9.82363 23.426558,-13.79005 7.5228,-3.96642 19.5482,-9.3997 26.7231,-12.07396 7.1749,-2.67425 17.0749,-6.04671 22,-7.49434 4.9251,-1.44764 10.15472,-2.93022 11.62139,-3.29463 1.46667,-0.36441 4.16667,-0.93805 6,-1.27476 1.83333,-0.3367 4.83333,-0.96408 6.66667,-1.39416 1.83333,-0.43009 4.68308,-1.03553 6.33276,-1.34543 1.64968,-0.3099 4.94968,-0.85657 7.33333,-1.21483 2.38365,-0.35825 15.43391,-1.02709 29.00057,-1.4863 19.2431,-0.65135 28.53922,-0.34019 42.2792,1.41517 9.6869,1.23756 23.4869,3.6791 30.66667,5.42565 7.17977,1.74655 19.35413,5.36143 27.05413,8.03307 7.7,2.67164 21.2,8.4347 30,12.80679 8.8,4.37209 17.31479,8.97518 18.92175,10.2291 l 4.50258,2.97217 -25.25111,31.24869 -24.8079,31.23989 -15.87909,-6.91904 c -8.18243,-3.56535 -21.63861,-8.33528 -29.97301,-10.44027 -8.33439,-2.105 -22.39166,-4.51445 -31.23836,-5.35435 -12.29176,-1.16697 -19.98858,-1.14858 -32.63839,0.0779 -9.10441,0.88277 -22.18383,3.03329 -29.06537,4.77894 -6.88154,1.74564 -18.57654,5.60704 -25.98888,8.58089 -7.41235,2.97384 -18.97567,8.64631 -25.69627,12.60548 -6.72061,3.95917 -15.87467,9.89306 -20.34235,13.18644 -4.46769,3.29337 -11.58737,9.50885 -15.82152,13.81216 -4.234138,4.30332 -11.978757,13.85338 -17.210257,21.22238 -5.2315,7.369 -12.49196,18.919 -16.134353,25.66667 -3.642395,6.74767 -7.255457,12.2685 -8.029028,12.2685 z"
         id="path1670"
         sodipodi:nodetypes="ssssscssssssssscsssssssscsssscsssscsssssssscsssssssssssssssssssscccsssssssssssss" />
      <path
         style="fill:#7291b1;stroke-width:1.33333"
         d="m 216.88513,1064.7477 c -1.83333,0 -2.58333,-0.3027 -1.66666,-0.6725 0.91666,-0.3699 2.41666,-0.3699 3.33333,0 0.91667,0.3698 0.16667,0.6725 -1.66667,0.6725 z m 36,0 c -1.83333,0 -2.58333,-0.3027 -1.66666,-0.6725 0.91666,-0.3699 2.41666,-0.3699 3.33333,0 0.91667,0.3698 0.16667,0.6725 -1.66667,0.6725 z m 172.66667,-1.5042 c -3.66667,-0.011 -5.00841,-0.2689 -2.98167,-0.5754 2.02675,-0.3065 5.02675,-0.2983 6.66667,0.018 1.63992,0.3165 -0.0184,0.5672 -3.685,0.5572 z m -49.33333,-1.3333 c -3.66667,-0.011 -5.00842,-0.269 -2.98167,-0.5754 2.02675,-0.3065 5.02675,-0.2983 6.66667,0.018 1.63992,0.3165 -0.0184,0.5672 -3.685,0.5572 z m -49.33334,-1.3334 c -3.66666,-0.011 -5.00841,-0.2689 -2.98166,-0.5754 2.02674,-0.3065 5.02674,-0.2983 6.66666,0.018 1.63992,0.3164 -0.0184,0.5672 -3.685,0.5572 z m 130.88304,-9.9519 c -0.36988,0.9166 -0.67252,0.1666 -0.67252,-1.6667 0,-1.8333 0.30264,-2.5833 0.67252,-1.6667 0.36988,0.9167 0.36988,2.4167 0,3.3334 z M 234.88513,984.52067 c -5.13333,0.005 -7.39672,-0.23024 -5.02973,-0.52478 2.36697,-0.29455 6.56697,-0.29939 9.33333,-0.0107 2.76635,0.28864 0.82974,0.52963 -4.3036,0.53555 z m 140.83212,-63.20691 c -1.31682,1.30701 -1.46997,1.15386 -0.7464,-0.7464 0.50071,-1.31496 1.24626,-2.05496 1.65678,-1.64444 0.41052,0.41052 8.5e-4,1.48638 -0.91038,2.39084 z M -32.898491,815.9582 c -0.369883,0.91667 -0.672515,0.16667 -0.672515,-1.66667 0,-1.83333 0.302632,-2.58333 0.672515,-1.66666 0.369883,0.91666 0.369883,2.41666 0,3.33333 z m 535.991541,-2.64129 c -0.36524,0.9027 -0.64182,-0.15871 -0.61465,-2.35871 0.0272,-2.2 0.326,-2.93859 0.66405,-1.64129 0.33806,1.29729 0.31583,3.09729 -0.0495,4 z M 369.69069,785.93043 c -0.44305,0.44305 -0.75818,-0.34445 -0.70029,-1.75 0.064,-1.55327 0.37992,-1.8692 0.80555,-0.80556 0.38516,0.96249 0.3378,2.11249 -0.1052,2.55556 z m 133.40236,-1.94685 c -0.36524,0.9027 -0.64182,-0.15871 -0.61465,-2.35871 0.0272,-2.2 0.326,-2.93859 0.66405,-1.64129 0.33806,1.29729 0.31583,3.09729 -0.0495,4 z M -32.975976,780.5971 c -0.443056,0.44305 -0.758188,-0.34446 -0.700293,-1.75 0.06398,-1.55327 0.379921,-1.8692 0.805556,-0.80556 0.385161,0.96249 0.337792,2.11249 -0.105263,2.55556 z m 693.426856,-2.30556 c -0.23883,0 -1.88883,-1.65 -3.66667,-3.66667 l -3.23241,-3.66667 3.66667,3.23242 c 2.01666,1.77784 3.66666,3.42784 3.66666,3.66666 0,0.23884 -0.19541,0.43426 -0.43425,0.43426 z M 333.81336,703.62487 c -0.22281,0 -2.47281,-2.25 -5,-5 l -4.59489,-5 5,4.5949 c 2.75,2.52718 5,4.77718 5,5 0,0.22281 -0.1823,0.4051 -0.40511,0.4051 z m 1263.57524,-12 c -0.2769,0 -0.5035,-0.22653 -0.5035,-0.50341 0,-0.27687 1.05,-1.32687 2.3334,-2.33333 2.1148,-1.6585 2.1618,-1.61134 0.5034,0.50341 -1.0065,1.28333 -2.0565,2.33333 -2.3333,2.33333 z M 654.47183,680.95821 c -0.36667,0 0.41932,-1.2 1.74664,-2.66667 1.32732,-1.46667 2.7133,-2.66667 3.07997,-2.66667 0.36667,0 -0.41932,1.2 -1.74664,2.66667 -1.32732,1.46667 -2.71331,2.66667 -3.07997,2.66667 z M 373.71505,670.29154 c -0.27686,0 -1.32686,-1.05 -2.33333,-2.33333 -1.65849,-2.11475 -1.61133,-2.16191 0.50341,-0.50342 1.28334,1.00647 2.33334,2.05647 2.33334,2.33334 0,0.27688 -0.22654,0.50341 -0.50342,0.50341 z M 220.10736,659.51961 c -1.55327,-0.064 -1.8692,-0.37992 -0.80556,-0.80555 0.96249,-0.38517 2.11249,-0.3378 2.55556,0.10526 0.44305,0.44306 -0.34445,0.75819 -1.75,0.7003 z"
         id="path1668" />
      <path
         style="fill:#26a9df;stroke-width:1.33333"
         d="m 150.22081,1051.5661 c -1.10129,-0.032 -8.30234,-2.6326 -16.00234,-5.7783 -7.7,-3.1457 -16.7,-7.0896 -20,-8.7641 -3.3,-1.6745 -11.01,-6.0508 -17.133349,-9.7251 -6.12334,-3.6743 -17.21882,-11.2094 -24.656621,-16.7448 -7.437803,-5.5354 -19.842635,-16.40893 -27.566295,-24.16334 -7.72366,-7.75441 -18.299714,-19.79893 -23.502345,-26.7656 -5.202631,-6.96667 -12.0377067,-16.86666 -15.1890573,-22 -3.1513507,-5.13333 -9.1774107,-16.53333 -13.3912454,-25.33333 -4.2138363,-8.8 -9.8097293,-22.44644 -12.4353203,-30.32541 -2.625591,-7.87898 -6.236521,-21.67897 -8.024289,-30.66667 -1.787768,-8.98769 -3.66178,-20.84125 -4.164471,-26.34125 -0.502692,-5.5 -0.913985,-18.1 -0.913985,-28 0,-9.9 0.421855,-22.5 0.937456,-28 0.515601,-5.5 2.328863,-16.9 4.029472,-25.33333 1.700608,-8.43333 5.270565,-22.0584 7.933236,-30.27793 2.662672,-8.21953 6.374719,-18.41953 8.248993,-22.66667 1.874275,-4.24713 3.5937777,-7.91356 3.8211177,-8.14761 0.2273386,-0.23404 11.1218493,6.12277 24.2100223,14.12628 13.088174,8.00349 28.031579,17.04499 33.207568,20.09221 5.17599,3.04721 10.087944,5.54039 10.915455,5.54039 0.930796,0 -0.0021,4.44912 -2.44654,11.66666 -2.173108,6.41667 -5.25032,17.66667 -6.838248,25 -2.323519,10.73043 -2.898157,17.88843 -2.943569,36.66667 -0.04164,17.22009 0.562018,26.3969 2.304089,35.02653 1.298285,6.43127 4.147689,17.23127 6.332011,24 2.184321,6.76875 7.29158,18.95632 11.349464,27.0835 4.057884,8.12719 11.595596,20.42719 16.75047,27.33334 5.154875,6.90614 13.676032,16.93449 18.935911,22.28521 5.25987,5.35072 14.6634,13.19939 20.89673,17.44147 6.23334,4.24209 14.89202,9.72043 19.24151,12.1741 4.34949,2.45368 14.84949,7.25389 23.33333,10.66713 8.48384,3.41326 15.29439,6.75704 15.13455,7.43064 -0.15984,0.6736 -7.05879,17.27474 -15.33099,36.89141 -10.3182,24.4685 -15.66905,35.6482 -17.04272,35.6079 z m 82.66432,-162.81842 c -1.83333,0 -2.58333,-0.30264 -1.66666,-0.67252 0.91666,-0.36988 2.41666,-0.36988 3.33333,0 0.91667,0.36988 0.16667,0.67252 -1.66667,0.67252 z m -83.17008,-73.12281 c -0.27686,0 -1.32686,-1.05 -2.33333,-2.33334 -1.65849,-2.11474 -1.61133,-2.1619 0.50341,-0.50341 1.28334,1.00647 2.33334,2.05647 2.33334,2.33333 0,0.27688 -0.22654,0.50342 -0.50342,0.50342 z m 166.34016,0 c -0.27688,0 -0.50341,-0.22654 -0.50341,-0.50342 0,-0.27686 1.05,-1.32686 2.33333,-2.33333 2.11475,-1.65849 2.16191,-1.61133 0.50342,0.50341 -1.00647,1.28334 -2.05647,2.33334 -2.33334,2.33334 z m 4.39567,-34.66667 c -0.23883,0 -1.88883,-1.65 -3.66667,-3.66666 l -3.23241,-3.66667 3.66667,3.23241 c 2.01666,1.77784 3.66666,3.42784 3.66666,3.66667 0,0.23884 -0.19541,0.43425 -0.43425,0.43425 z M 184.21847,769.74596 c -12.46667,-10e-4 -17.3872,-0.2032 -10.93454,-0.44813 6.45268,-0.24495 16.65268,-0.24369 22.66667,0.003 6.014,0.24646 0.73453,0.44688 -11.73213,0.44534 z m 96.66666,0.003 c -12.1,0 -17.05,-0.20213 -11,-0.4492 6.05,-0.24705 15.95,-0.24705 22,0 6.05,0.24707 1.1,0.4492 -11,0.4492 z M 92.055208,674.29154 c -0.276873,0 -0.503407,-0.22653 -0.503407,-0.50341 0,-0.27687 1.05,-1.32687 2.333334,-2.33334 2.114741,-1.65849 2.161901,-1.61133 0.503406,0.50342 -1.006458,1.28333 -2.056458,2.33333 -2.333333,2.33333 z m 9.333342,-10.66667 c -0.27688,0 -0.50342,-0.22653 -0.50342,-0.50341 0,-0.27687 1.05,-1.32687 2.33334,-2.33333 2.11474,-1.65849 2.1619,-1.61133 0.50341,0.50341 -1.00647,1.28333 -2.05647,2.33333 -2.33333,2.33333 z M 270.77403,531.51962 c -1.55327,-0.064 -1.8692,-0.37992 -0.80556,-0.80556 0.96249,-0.38516 2.11249,-0.33779 2.55556,0.10526 0.44305,0.44306 -0.34446,0.75819 -1.75,0.7003 z m -62.55556,-1.48801 c -2.2,-0.0272 -2.93859,-0.32599 -1.6413,-0.66405 1.2973,-0.33806 3.0973,-0.31583 4,0.0494 0.90271,0.36524 -0.1587,0.64183 -2.3587,0.61465 z m 51.33333,0.0494 c -1.83333,0 -2.58333,-0.30263 -1.66667,-0.67251 0.91667,-0.36989 2.41667,-0.36989 3.33334,0 0.91666,0.36988 0.16666,0.67251 -1.66667,0.67251 z m -25.33333,-1.58869 c -6.23334,0 -8.78334,-0.22968 -5.66667,-0.51039 3.11667,-0.28071 8.21667,-0.28071 11.33333,0 3.11667,0.28071 0.56667,0.51039 -5.66666,0.51039 z"
         id="path1666" />
      <path
         style="fill:#516d99;stroke-width:1.33333"
         d="m 222.88513,1064.6983 c -2.2,-0.027 -2.93858,-0.326 -1.64129,-0.6641 1.29729,-0.338 3.09729,-0.3158 4,0.049 0.90271,0.3652 -0.15871,0.6418 -2.35871,0.6146 z m 24,0 c -2.2,-0.027 -2.93858,-0.326 -1.64129,-0.6641 1.29729,-0.338 3.09729,-0.3158 4,0.049 0.90271,0.3652 -0.15871,0.6418 -2.35871,0.6146 z m 188,-1.3334 c -2.2,-0.027 -2.93858,-0.326 -1.64129,-0.664 1.29729,-0.3381 3.09729,-0.3159 4,0.049 0.90271,0.3653 -0.15871,0.6419 -2.35871,0.6147 z m -46.66666,-1.4547 c -3.66667,-0.011 -5.00842,-0.269 -2.98167,-0.5754 2.02675,-0.3065 5.02675,-0.2983 6.66667,0.018 1.63992,0.3165 -0.0184,0.5672 -3.685,0.5572 z m -49.33334,-1.3334 c -3.66666,-0.011 -5.00841,-0.2689 -2.98166,-0.5754 2.02674,-0.3065 5.02674,-0.2983 6.66666,0.018 1.63992,0.3164 -0.0184,0.5672 -3.685,0.5572 z m -46.77777,-1.0572 c -1.55327,-0.064 -1.8692,-0.3799 -0.80556,-0.8056 0.96249,-0.3851 2.11249,-0.3378 2.55556,0.1052 0.44305,0.4431 -0.34445,0.7582 -1.75,0.7003 z M 223.5518,984.74767 c -1.83333,0 -2.58333,-0.30264 -1.66667,-0.67252 0.91667,-0.36988 2.41667,-0.36988 3.33334,0 0.91666,0.36988 0.16666,0.67252 -1.66667,0.67252 z m 22.66667,0 c -1.83334,0 -2.58334,-0.30264 -1.66667,-0.67252 0.91667,-0.36988 2.41667,-0.36988 3.33333,0 0.91667,0.36988 0.16667,0.67252 -1.66666,0.67252 z m 445.88889,-74.56141 c -1.55327,-0.064 -1.8692,-0.37992 -0.80556,-0.80554 0.96249,-0.38516 2.11251,-0.3378 2.55556,0.1052 0.44305,0.44305 -0.34445,0.75818 -1.75,0.70029 z m 24,0 c -1.55327,-0.064 -1.8692,-0.37992 -0.80556,-0.80554 0.96249,-0.38516 2.11251,-0.3378 2.55556,0.1052 0.44305,0.44305 -0.34445,0.75818 -1.75,0.70029 z m 952.00004,0 c -1.5533,-0.064 -1.8692,-0.37992 -0.8056,-0.80554 0.9625,-0.38516 2.1125,-0.3378 2.5556,0.1052 0.4431,0.44305 -0.3445,0.75818 -1.75,0.70029 z m 28,0 c -1.5533,-0.064 -1.8692,-0.37992 -0.8056,-0.80554 0.9625,-0.38516 2.1125,-0.3378 2.5556,0.1052 0.4431,0.44305 -0.3445,0.75818 -1.75,0.70029 z M 848.10736,907.5196 c -1.55327,-0.064 -1.8692,-0.37992 -0.80556,-0.80555 0.96249,-0.38516 2.11251,-0.3378 2.55556,0.1052 0.44305,0.44305 -0.34445,0.75819 -1.75,0.70029 z m 104,0 c -1.55327,-0.064 -1.8692,-0.37992 -0.80556,-0.80555 0.96249,-0.38516 2.11251,-0.3378 2.55556,0.1052 0.44305,0.44305 -0.34445,0.75819 -1.75,0.70029 z m 130.66664,0 c -1.5532,-0.064 -1.8692,-0.37992 -0.8055,-0.80555 0.9625,-0.38516 2.1125,-0.3378 2.5555,0.1052 0.4431,0.44305 -0.3444,0.75819 -1.75,0.70029 z m 264.0001,0 c -1.5534,-0.064 -1.8692,-0.37992 -0.8056,-0.80555 0.9625,-0.38516 2.1125,-0.3378 2.5556,0.1052 0.443,0.44305 -0.3446,0.75819 -1.75,0.70029 z m 179.1108,-66.3284 c -0.1988,32.50518 -0.3616,6.30033 -0.3618,-58.233 0,-64.53333 0.1627,-91.12847 0.3616,-59.10033 0.199,32.02815 0.199,84.82814 2e-4,117.33333 z m 236.459,43.767 c -0.3666,0 1.677,-2.4 4.5412,-5.33334 2.8643,-2.93333 5.5079,-5.33333 5.8746,-5.33333 0.3666,0 -1.677,2.4 -4.5412,5.33333 -2.8643,2.93334 -5.5079,5.33334 -5.8746,5.33334 z M 733.38855,862.29153 c -0.27688,0 -0.50342,-0.22653 -0.50342,-0.50341 0,-0.27687 1.05,-1.32687 2.33334,-2.33333 2.11474,-1.6585 2.1619,-1.61134 0.50341,0.50341 -1.00647,1.28333 -2.05647,2.33333 -2.33333,2.33333 z M 369.76817,806.62487 c -0.36988,0.91666 -0.67252,0.16666 -0.67252,-1.66667 0,-1.83333 0.30264,-2.58333 0.67252,-1.66667 0.36988,0.91667 0.36988,2.41667 0,3.33334 z m 133.43199,-4.7069 c -0.27556,3.50546 -0.50436,0.97356 -0.50841,-5.62644 -0.004,-6.59999 0.2214,-9.4681 0.50102,-6.37355 0.27963,3.09453 0.28296,8.49453 0.008,11.99999 z m -80.06559,2.72244 c -0.33372,1.27479 -0.59466,-0.0823 -0.57986,-3.01554 0.0148,-2.93334 0.28785,-3.97634 0.60677,-2.31779 0.31892,1.65855 0.30681,4.05855 -0.0269,5.33333 z m 0,-10.66666 c -0.33372,1.27479 -0.59466,-0.0823 -0.57986,-3.01555 0.0148,-2.93333 0.28785,-3.97633 0.60677,-2.31778 0.31892,1.65854 0.30681,4.05854 -0.0269,5.33333 z m -53.3664,-3.34888 c -0.36988,0.91667 -0.67252,0.16667 -0.67252,-1.66667 0,-1.83333 0.30264,-2.58333 0.67252,-1.66666 0.36988,0.91666 0.36988,2.41666 0,3.33333 z m 1198.73873,-2 c -0.3056,2.01667 -0.5555,0.36667 -0.5555,-3.66667 0,-4.03333 0.2499,-5.68333 0.5555,-3.66666 0.3054,2.01666 0.3054,5.31666 0,7.33333 z m 233.3582,-2.66667 c -0.2746,3.48334 -0.4993,0.63334 -0.4993,-6.33333 0,-6.96667 0.2247,-9.81667 0.4993,-6.33333 0.2747,3.48333 0.2747,9.18333 0,12.66666 z M -32.975976,784.5971 c -0.443056,0.44305 -0.758188,-0.34446 -0.700293,-1.75 0.06398,-1.55327 0.379921,-1.8692 0.805556,-0.80556 0.385161,0.96249 0.337792,2.11249 -0.105263,2.55556 z M 1621.6907,765.93043 c -0.443,0.44305 -0.7582,-0.34445 -0.7004,-1.75 0.064,-1.55327 0.38,-1.8692 0.8056,-0.80556 0.3852,0.96249 0.3379,2.11249 -0.1053,2.55556 z M 639.02403,735.26376 c -0.44306,0.44306 -0.75819,-0.34445 -0.7003,-1.75 0.064,-1.55326 0.37992,-1.8692 0.80555,-0.80556 0.38516,0.9625 0.3378,2.1125 -0.1052,2.55556 z m 0,-14.66666 c -0.44306,0.44305 -0.75819,-0.34446 -0.7003,-1.75 0.064,-1.55327 0.37992,-1.8692 0.80555,-0.80556 0.38516,0.96249 0.3378,2.11249 -0.1052,2.55556 z m 55.69785,-15.63889 c -0.27688,0 -0.50341,-0.22654 -0.50341,-0.50342 0,-0.27686 1.05,-1.32686 2.33333,-2.33333 2.11475,-1.65849 2.16191,-1.61133 0.50341,0.50341 -1.00646,1.28334 -2.05646,2.33334 -2.33333,2.33334 z m 1080.32642,-16 c -0.2768,0 -1.3268,-1.05 -2.3333,-2.33334 -1.6584,-2.11474 -1.6113,-2.1619 0.5035,-0.50341 1.2833,1.00647 2.3333,2.05647 2.3333,2.33333 0,0.27688 -0.2265,0.50342 -0.5035,0.50342 z m -997.33325,-16 c -0.27686,0 -1.32686,-1.05 -2.33333,-2.33334 -1.65849,-2.11474 -1.61133,-2.1619 0.50341,-0.50341 1.28334,1.00647 2.33334,2.05647 2.33334,2.33333 0,0.27688 -0.22654,0.50342 -0.50342,0.50342 z M 225.5518,659.36494 c -2.2,-0.0272 -2.93859,-0.326 -1.64129,-0.66405 1.29729,-0.33806 3.09729,-0.31583 4,0.0494 0.9027,0.36523 -0.15871,0.64182 -2.35871,0.61465 z m 12.66667,-0.0494 c -2.56667,0 -3.61667,-0.27439 -2.33334,-0.60976 1.28334,-0.33537 3.38334,-0.33537 4.66667,0 1.28333,0.33537 0.23333,0.60976 -2.33333,0.60976 z m 609.88889,0.20408 c -1.55327,-0.064 -1.8692,-0.37992 -0.80556,-0.80556 0.96249,-0.38516 2.11251,-0.33779 2.55556,0.10527 0.44305,0.44305 -0.34445,0.75819 -1.75,0.70029 z m 318.66664,0 c -1.5532,-0.064 -1.8692,-0.37992 -0.8055,-0.80556 0.9625,-0.38516 2.1125,-0.33779 2.5555,0.10527 0.4431,0.44305 -0.3444,0.75819 -1.75,0.70029 z m 40,0 c -1.5532,-0.064 -1.8692,-0.37992 -0.8055,-0.80556 0.9625,-0.38516 2.1125,-0.33779 2.5555,0.10527 0.4431,0.44305 -0.3444,0.75819 -1.75,0.70029 z m 140.0001,0 c -1.5534,-0.064 -1.8692,-0.37992 -0.8056,-0.80556 0.9625,-0.38516 2.1125,-0.33779 2.5556,0.10527 0.443,0.44305 -0.3446,0.75819 -1.75,0.70029 z m 326.6666,-2.66667 c -1.5533,-0.064 -1.8692,-0.37992 -0.8056,-0.80556 0.9626,-0.38516 2.1126,-0.33779 2.5556,0.10527 0.4431,0.44306 -0.3445,0.75819 -1.75,0.70029 z m 28,0 c -1.5533,-0.064 -1.8692,-0.37992 -0.8056,-0.80556 0.9626,-0.38516 2.1126,-0.33779 2.5556,0.10527 0.4431,0.44306 -0.3445,0.75819 -1.75,0.70029 z"
         id="path1664" />
      <path
         style="fill:#26598b;stroke-width:1.33333"
         d="m 228.10736,888.85293 c -1.55327,-0.064 -1.8692,-0.37992 -0.80556,-0.80555 0.96249,-0.38516 2.11249,-0.3378 2.55556,0.1052 0.44305,0.44306 -0.34445,0.75819 -1.75,0.7003 z m 9.33333,0 c -1.55326,-0.064 -1.8692,-0.37992 -0.80556,-0.80555 0.9625,-0.38516 2.1125,-0.3378 2.55556,0.1052 0.44306,0.44306 -0.34445,0.75819 -1.75,0.7003 z m 533.19499,0.10527 c -0.22947,0 -0.41721,-0.18775 -0.41721,-0.41722 0,-0.22946 1.95,-2.17946 4.33333,-4.33333 l 4.33333,-3.91612 -3.91612,4.33333 c -2.15386,2.38334 -4.10386,4.33334 -4.33333,4.33334 z m 831.14852,-4 c -0.2388,0 -1.8888,-1.65 -3.6667,-3.66667 l -3.2324,-3.66667 3.6667,3.23242 c 2.0167,1.77784 3.6667,3.42784 3.6667,3.66666 0,0.23884 -0.1955,0.43426 -0.4343,0.43426 z M 216.42512,883.62486 c -0.25301,0 -1.60301,-1.35 -3,-3 l -2.53999,-3 3,2.53999 c 1.65,1.39699 3,2.74699 3,3 0,0.253 -0.20701,0.46001 -0.46001,0.46001 z m 32.71337,0 c -0.36666,0 0.41932,-1.2 1.74664,-2.66666 1.32732,-1.46667 2.71331,-2.66667 3.07998,-2.66667 0.36666,0 -0.41932,1.2 -1.74664,2.66667 -1.32732,1.46666 -2.71331,2.66666 -3.07998,2.66666 z m -41.921,-36.6177 -0.40136,22.61771 -0.29884,-23.63443 -0.29882,-23.63443 -22.33334,-0.40008 -22.33333,-0.40006 22.37517,-0.29884 c 17.23014,-0.23011 22.52658,0.0957 23.03354,1.4168 0.36209,0.9436 0.47773,11.8936 0.25698,24.33333 z m 51.9851,-2.3502 -0.4119,22.30124 0.0472,-22.66667 0.0472,-22.66666 22.33462,-0.0499 22.33462,-0.0499 -21.96994,0.4153 -21.96994,0.41529 -0.4119,22.30124 z M -32.817005,801.29153 c -0.295769,2.38334 -0.537761,0.43334 -0.537761,-4.33333 0,-4.76666 0.241992,-6.71666 0.537761,-4.33333 0.295769,2.38333 0.295769,6.28333 0,8.66666 z M 304.10736,770.18627 c -1.55327,-0.064 -1.8692,-0.37992 -0.80556,-0.80555 0.96249,-0.38516 2.11249,-0.3378 2.55556,0.1052 0.44305,0.44306 -0.34445,0.75819 -1.75,0.7003 z M 207.20848,759.9582 c -0.25309,5.31667 -0.46016,0.96667 -0.46016,-9.66666 0,-10.63334 0.20707,-14.98334 0.46016,-9.66667 0.25308,5.31667 0.25308,14.01667 0,19.33333 z m 52.00369,-2.06546 c -0.24493,6.45266 -0.4466,1.53213 -0.44813,-10.93454 -0.001,-12.46666 0.19888,-17.74613 0.44535,-11.73213 0.24648,6.01399 0.24773,16.21399 0.003,22.66667 z M 207.02403,728.5971 c -0.44307,0.44305 -0.75819,-0.34446 -0.7003,-1.75 0.064,-1.55327 0.37992,-1.8692 0.80555,-0.80556 0.38516,0.96249 0.3378,2.11249 -0.1052,2.55556 z m 4.78113,-14.30556 c -0.36667,0 0.41932,-1.2 1.74664,-2.66667 1.32732,-1.46666 2.71331,-2.66666 3.07997,-2.66666 0.36667,0 -0.41932,1.2 -1.74664,2.66666 -1.32732,1.46667 -2.7133,2.66667 -3.07997,2.66667 z m 41.95329,0 c -0.25301,0 -1.60301,-1.35 -3,-3 l -2.53998,-3 3,2.53999 c 1.65,1.39698 3,2.74698 3,3 0,0.253 -0.20702,0.46001 -0.46002,0.46001 z m 1477.28985,0 c -0.2768,0 -1.3268,-1.05 -2.3333,-2.33333 -1.6584,-2.11475 -1.6113,-2.16191 0.5035,-0.50342 1.2833,1.00647 2.3333,2.05647 2.3333,2.33334 0,0.27688 -0.2265,0.50341 -0.5035,0.50341 z M 129.38855,704.95821 c -0.27688,0 -0.50342,-0.22654 -0.50342,-0.50342 0,-0.27686 1.05,-1.32686 2.33334,-2.33333 2.11474,-1.65849 2.1619,-1.61133 0.50341,0.50341 -1.00647,1.28334 -2.05647,2.33334 -2.33333,2.33334 z m 103.49658,-0.36315 c -3.3,0 -4.65,-0.26003 -3,-0.57783 1.65,-0.31781 4.35,-0.31781 6,0 1.65,0.3178 0.3,0.57783 -3,0.57783 z m -95.49658,-7.63685 c -0.27688,0 -0.50342,-0.22654 -0.50342,-0.50342 0,-0.27686 1.05,-1.32686 2.33334,-2.33333 2.11474,-1.65849 2.1619,-1.61133 0.50341,0.50341 -1.00647,1.28334 -2.05647,2.33334 -2.33333,2.33334 z m 198.66666,-74.66667 c -0.27688,0 -0.50341,-0.22653 -0.50341,-0.5034 0,-0.27688 1.05,-1.32688 2.33333,-2.33334 2.11475,-1.65849 2.16191,-1.61133 0.50342,0.50341 -1.00647,1.28333 -2.05647,2.33333 -2.33334,2.33333 z m 20,-25.33333 c -0.27688,0 -0.50341,-0.22653 -0.50341,-0.50341 0,-0.27687 1.05,-1.32687 2.33333,-2.33333 2.11475,-1.65849 2.16191,-1.61133 0.50342,0.50341 -1.00647,1.28333 -2.05647,2.33333 -2.33334,2.33333 z"
         id="path1662" />
      <path
         style="fill:#193e78;stroke-width:1.33333"
         d="m 366.72188,931.62486 c -0.27688,0 -0.50341,-0.22653 -0.50341,-0.50341 0,-0.27687 1.05,-1.32687 2.33333,-2.33333 2.11475,-1.6585 2.16191,-1.61134 0.50341,0.50341 -1.00646,1.28333 -2.05646,2.33333 -2.33333,2.33333 z M 709.06012,909.5695 c -8.57969,0.387 -18.38544,-0.0532 -24.84165,-1.11512 -5.86667,-0.96498 -15.05132,-3.14086 -20.41034,-4.8353 -5.35901,-1.69443 -12.8101,-4.93631 -16.558,-7.20416 -3.74788,-2.26787 -8.05566,-5.80724 -9.57284,-7.8653 -2.31398,-3.1389 -2.76121,-5.71724 -2.77533,-15.99999 -0.009,-6.74195 0.44025,-13.89078 0.99892,-15.88628 0.55865,-1.9955 2.12825,-4.22358 3.48799,-4.95128 1.9478,-1.04243 5.75737,0.34312 17.95816,6.53142 9.62185,4.88026 19.3131,8.706 25.59285,10.10312 7.03892,1.566 14.02865,2.0843 23.02611,1.70738 10.31424,-0.4321 14.42653,-1.23675 20.39509,-3.99076 4.32161,-1.99407 8.88517,-5.34588 10.81587,-7.94395 1.83694,-2.47193 4.02277,-6.53395 4.85738,-9.02671 0.8346,-2.49277 1.51747,-7.1037 1.51747,-10.24653 0,-3.14284 -0.63572,-7.40331 -1.41272,-9.46771 -0.77699,-2.06441 -3.62699,-6.03357 -6.33333,-8.82037 -2.70634,-2.7868 -7.48826,-6.57243 -10.62647,-8.41251 -3.13823,-1.84008 -14.68381,-7.46096 -25.65685,-12.49084 -10.97306,-5.02987 -24.13027,-11.92361 -29.23826,-15.31939 -5.10798,-3.39579 -11.7956,-8.9948 -14.86134,-12.44226 -3.06576,-3.44745 -7.57839,-10.46809 -10.02807,-15.60142 -2.75107,-5.76492 -4.98583,-13.12299 -5.84511,-19.24532 -0.96993,-6.9108 -0.96536,-13.16834 0.0151,-20.66667 0.98803,-7.55629 2.84761,-13.72864 6.25291,-20.75468 3.25836,-6.7229 7.38417,-12.49068 12.58984,-17.60025 4.8962,-4.80583 11.32338,-9.32227 17.48058,-12.28376 5.35558,-2.57593 13.62083,-5.56188 18.36723,-6.63543 4.7464,-1.07356 13.12983,-2.34868 18.62983,-2.83359 5.6238,-0.49583 14.95969,-0.20953 21.33333,0.65422 6.23333,0.84474 14.63333,2.47488 18.66667,3.62253 4.03333,1.14764 10.63333,3.7437 14.66666,5.769 4.03334,2.0253 8.53334,5.01187 10,6.63682 2.35066,2.60433 2.66667,4.82816 2.66667,18.7656 0,13.21297 -0.37916,16.19017 -2.30737,18.11776 -2.18739,2.18666 -3.01943,1.94769 -16,-4.59532 -7.53095,-3.79607 -17.56994,-7.88027 -22.30886,-9.07599 -5.86673,-1.48031 -12.25633,-2.00001 -20.02344,-1.62867 -8.91734,0.42635 -12.70045,1.25931 -17.33217,3.81623 -3.25872,1.79897 -7.28357,5.28791 -8.94409,7.75319 -1.66052,2.46529 -3.40127,6.51929 -3.86832,9.0089 -0.46706,2.4896 -0.44923,7.19375 0.0396,10.45364 0.66714,4.44887 2.3994,7.60723 6.94565,12.66375 4.52147,5.02894 9.1506,8.22154 18.26124,12.59433 6.71241,3.22171 19.70993,9.45511 28.88336,13.85199 9.17343,4.39689 20.39271,10.78601 24.93173,14.19806 4.53903,3.41206 10.38702,9.11115 12.99554,12.66464 2.6085,3.55351 6.20869,9.67575 8.00042,13.60496 1.79172,3.92923 3.92671,11.34405 4.74442,16.47739 0.8177,5.13333 1.10828,12.93333 0.64572,17.33333 -0.46256,4.4 -1.75428,11.3 -2.87051,15.33333 -1.11623,4.03334 -3.86649,10.79578 -6.11172,15.02763 -2.41563,4.55305 -7.88859,11.28504 -13.40568,16.48958 -6.02249,5.68131 -12.67845,10.3847 -18.79951,13.28451 -5.21182,2.46907 -14.19729,5.69243 -19.96772,7.16303 -5.77042,1.4706 -16.87042,2.96154 -24.66666,3.31322 z m 978.82728,-0.0133 c -8.6179,0.31685 -20.1689,0.0149 -25.6689,-0.67105 -5.5,-0.68595 -14.7459,-2.44555 -20.5463,-3.91023 -5.8004,-1.46468 -15.1004,-4.90443 -20.6667,-7.64388 -7.4386,-3.66095 -12.9858,-7.81517 -20.9337,-15.67701 -8.9252,-8.8284 -11.8961,-12.90809 -17.0132,-23.36287 -3.41,-6.96666 -7.3808,-17.36148 -8.8243,-23.0996 -1.4434,-5.7381 -3.2374,-15.32237 -3.9868,-21.29834 -0.7493,-5.97599 -1.3505,-18.98117 -1.336,-28.90041 0.015,-9.91923 0.6236,-22.23498 1.3534,-27.36831 0.7298,-5.13333 2.5473,-14.13333 4.0388,-20 1.4914,-5.86667 5.3381,-16.06667 8.5481,-22.66666 3.21,-6.6 8.7452,-15.58547 12.3004,-19.9677 3.5553,-4.38224 10.0496,-10.87657 14.4319,-14.43185 4.3822,-3.55528 13.3677,-9.08389 19.9677,-12.28581 6.6,-3.20192 15.6208,-6.74056 20.0464,-7.86363 4.4255,-1.12308 14.0255,-2.71947 21.3333,-3.54754 7.6028,-0.86149 18.7058,-1.1209 25.9536,-0.60638 6.9667,0.49456 17.4667,1.80159 23.3334,2.90451 5.8666,1.10292 14.5666,3.55281 19.3333,5.44418 4.7667,1.89139 12.3715,5.7701 16.8996,8.61935 4.5281,2.84927 11.8457,9.04251 16.2613,13.76277 5.3695,5.74 10.0478,12.6762 14.1259,20.94386 3.3537,6.79886 7.6515,18.36157 9.5505,25.6949 2.9076,11.22812 3.5623,17.26071 4.1463,38.20725 0.4392,15.75492 0.1173,28.95284 -0.8793,36 -0.865,6.11935 -2.7612,15.62608 -4.2138,21.12608 -1.4525,5.5 -5.6546,16.11215 -9.3381,23.58255 -4.7865,9.70766 -9.1713,16.25481 -15.3696,22.94955 -4.7699,5.15186 -12.9028,12.17932 -18.0732,15.61659 -5.1704,3.43728 -13.6852,7.90879 -18.9217,9.93669 -5.2367,2.0279 -14.1702,4.6433 -19.8523,5.81199 -5.682,1.16869 -17.382,2.38413 -26,2.701 z m -4.3356,-40.72718 c 6.9667,0.0536 15.7565,-0.72515 19.5331,-1.7307 3.7765,-1.00553 9.9856,-3.52589 13.7978,-5.60077 3.8123,-2.07489 9.4223,-6.54364 12.4668,-9.93055 3.0447,-3.3869 7.1426,-9.11138 9.1064,-12.72106 1.964,-3.60967 4.8774,-11.0611 6.4743,-16.55871 2.2909,-7.88715 3.0493,-14.8294 3.5951,-32.91052 0.4386,-14.53505 0.1066,-26.91321 -0.9072,-33.84848 -0.8792,-6.01349 -2.7595,-14.69177 -4.1782,-19.28505 -1.4188,-4.59329 -4.9756,-11.93949 -7.904,-16.32491 -3.1788,-4.76025 -8.144,-9.90378 -12.3209,-12.76347 -3.8481,-2.63451 -9.6965,-5.77776 -12.9965,-6.985 -3.4902,-1.27678 -12.0316,-2.48072 -20.4187,-2.87806 -11.2204,-0.53156 -16.3308,-0.16552 -23.0385,1.65019 -4.741,1.28329 -12.1452,4.61187 -16.454,7.3968 -4.3119,2.78683 -10.2966,8.32475 -13.3106,12.31665 -3.0118,3.9892 -6.9656,10.91876 -8.7861,15.39903 -1.8204,4.48026 -4.2809,13.71645 -5.4677,20.52488 -1.6647,9.55085 -2.0011,17.70969 -1.472,35.71228 0.5192,17.67302 1.3572,25.86414 3.4541,33.76602 1.5227,5.73799 4.4316,13.53327 6.4643,17.32284 2.0328,3.78957 6.1888,9.40352 9.2356,12.47544 3.0468,3.07191 8.1468,6.93225 11.3333,8.57852 3.1865,1.64628 8.7936,3.73659 12.4603,4.64515 3.6666,0.90854 12.3666,1.69581 19.3333,1.74948 z m -819.8804,38.14333 c -7.03245,0.29876 -15.48627,-0.0195 -18.78627,-0.70704 -3.31286,-0.69032 -7.045,-2.52342 -8.33333,-4.09304 -2.18268,-2.65926 -2.33333,-10.35615 -2.33333,-119.21404 0,-108.8657 0.15049,-116.55326 2.33333,-119.19353 1.52516,-1.84476 5.10423,-3.33347 10.33333,-4.29814 4.53159,-0.83599 12.74526,-1.12005 18.94507,-0.65519 6.01979,0.45135 12.41893,1.49219 14.22033,2.31296 1.80139,0.82076 3.61792,2.76916 4.03672,4.32977 0.41882,1.5606 0.76147,54.43747 0.76147,117.50413 0,63.06667 -0.34265,115.94353 -0.76147,117.50413 -0.4188,1.56061 -2.3068,3.54157 -4.19553,4.40213 -1.88873,0.86058 -9.18788,1.80911 -16.22032,2.10786 z m 103.21373,0.04 c -6.6,0.27396 -14.7,-0.0633 -18,-0.74958 -3.31581,-0.6895 -7.04385,-2.51944 -8.33333,-4.09046 -2.1828,-2.6594 -2.32848,-10.12343 -2.25808,-115.69508 0.0559,-83.76766 0.4854,-114.05499 1.66667,-117.51895 1.08402,-3.1788 3.07928,-5.40994 6.25808,-6.99794 4.23308,-2.11465 10.18672,-2.33144 64.07853,-2.33332 46.0921,-0.002 59.9337,0.37958 61.7399,1.7003 1.2805,0.93629 2.8808,4.08629 3.5564,7 0.6755,2.91369 1.2282,8.29762 1.2282,11.96429 0,3.66667 -0.5527,9.0506 -1.2282,11.96429 -0.6756,2.91371 -2.2759,6.06371 -3.5564,7 -1.7673,1.29226 -12.063,1.70234 -42.7399,1.70234 h -40.41187 v 33.33333 33.33333 h 37.85227 c 34.6296,0 38.1077,0.20677 40.8517,2.42873 2.499,2.02356 3.1078,4.11883 3.6495,12.5596 0.3576,5.57199 0.2409,12.31252 -0.2594,14.97897 -0.5002,2.66646 -2.076,6.01463 -3.5018,7.4404 -2.4462,2.44623 -4.7334,2.5923 -40.5923,2.5923 h -37.99997 l -0.0204,46.33333 c -0.0107,25.48333 -0.47344,47.0458 -1.02713,47.91658 -0.55371,0.87079 -2.79452,2.27088 -4.97959,3.11132 -2.18508,0.84044 -9.37286,1.75223 -15.97286,2.02618 z m 132.66667,0.0496 c -7.7,0.25633 -15.8524,-0.0164 -18.1164,-0.60606 -2.264,-0.58966 -4.814,-1.50326 -5.6667,-2.03024 -0.8526,-0.52698 -1.5502,-2.66428 -1.5502,-4.74957 0,-2.08529 17.0472,-52.89988 37.8827,-112.92131 20.8355,-60.02143 39.144,-112.48744 40.6856,-116.59115 1.996,-5.31334 3.853,-7.95833 6.4506,-9.18788 2.121,-1.00392 10.9027,-1.99373 20.9811,-2.36482 9.5333,-0.35102 21.4885,0.0101 26.5671,0.80261 5.0785,0.79245 10.068,2.27509 11.0877,3.29475 1.0196,1.01965 19.8093,53.36057 41.7548,116.31313 21.9455,62.95257 40.2188,116.29167 40.6072,118.53135 0.3885,2.23967 0.1814,4.86552 -0.4602,5.83523 -0.6416,0.96969 -3.5043,2.30538 -6.3616,2.96818 -2.8573,0.66282 -10.595,1.18366 -17.195,1.15743 -6.6,-0.0263 -14.8558,-0.51765 -18.3462,-1.09208 -3.4903,-0.57443 -6.7739,-1.47225 -7.2968,-1.99516 -0.5229,-0.52292 -4.9306,-12.76717 -9.7948,-27.20944 l -8.844,-26.25869 h -47.0946 -47.0947 l -8.3969,26.1037 c -7.5716,23.5382 -8.7606,26.27226 -12.0978,27.81882 -2.0355,0.94332 -10.0009,1.92485 -17.7009,2.18118 z m 84.7661,-95.43705 c 19.3787,0 35.2339,-0.4499 35.2339,-0.99978 0,-0.54988 -7.575,-23.79987 -16.8333,-51.66666 -9.2583,-27.86679 -17.3097,-51.1883 -17.892,-51.8256 -0.5823,-0.63728 -4.6935,10.16272 -9.1359,24 -4.4424,13.83729 -12.2462,37.60871 -17.3418,52.82537 l -9.2647,27.66667 z m 178.0202,95.34745 c -7.0324,0.29876 -15.4863,-0.0195 -18.7863,-0.70704 -3.3128,-0.69032 -7.0449,-2.52342 -8.3333,-4.09304 -2.1827,-2.65926 -2.3334,-10.35615 -2.3334,-119.21404 0,-108.8657 0.1506,-116.55326 2.3334,-119.19353 1.5252,-1.84476 5.1042,-3.33347 10.3333,-4.29814 4.5316,-0.83599 12.7452,-1.12005 18.9451,-0.65519 6.0197,0.45135 12.4189,1.49219 14.2202,2.31296 1.8015,0.82076 3.618,2.76916 4.0368,4.32977 0.4188,1.5606 0.7696,22.78747 0.7796,47.1708 l 0.018,44.33333 h 46 46 l 0.019,-44.33333 c 0.013,-24.38333 0.367,-45.6342 0.7936,-47.22416 0.4264,-1.58996 2.6682,-3.68996 4.9817,-4.66666 2.6961,-1.13825 9.7116,-1.76694 19.5397,-1.75105 10.8915,0.0176 16.4922,0.60218 19.3334,2.01797 l 4,1.99317 V 782.9582 902.92226 l -4,1.99318 c -2.8412,1.41578 -8.4419,2.00036 -19.3334,2.01797 -9.8281,0.0159 -16.8436,-0.6128 -19.5397,-1.75105 -2.3135,-0.97671 -4.5553,-3.07671 -4.9817,-4.66667 -0.4266,-1.58996 -0.7836,-24.94083 -0.7936,-51.89082 l -0.019,-49 h -46 -46 l -0.019,49 c -0.013,26.94999 -0.3608,50.27686 -0.7796,51.83746 -0.4188,1.56061 -2.3068,3.54157 -4.1956,4.40213 -1.8886,0.86058 -9.1878,1.80911 -16.2202,2.10786 z M 325.30235,898.29153 c -0.22947,0 -0.41722,-0.18775 -0.41722,-0.41721 0,-0.22947 1.95,-2.17947 4.33334,-4.33334 l 4.33333,-3.91612 -3.91612,4.33334 c -2.15387,2.38333 -4.10387,4.33333 -4.33333,4.33333 z M 133.38855,700.95821 c -0.27688,0 -0.50342,-0.22654 -0.50342,-0.50342 0,-0.27686 1.05,-1.32686 2.33334,-2.33333 2.11474,-1.65849 2.1619,-1.61133 0.50341,0.50341 -1.00647,1.28334 -2.05647,2.33334 -2.33333,2.33334 z m 160.75122,-26.66667 c -0.69005,0 -1.25464,-0.23581 -1.25464,-0.52401 0,-0.28822 0.93116,-0.88134 2.06926,-1.31807 1.18656,-0.45532 1.72176,-0.2318 1.25464,0.52401 -0.44803,0.72494 -1.3792,1.31807 -2.06926,1.31807 z m 138.28535,-58.66666 c -0.25301,0 -1.60301,-1.35 -3,-3 l -2.53999,-3 3,2.53998 c 1.65,1.39699 3,2.74699 3,3 0,0.25301 -0.20701,0.46002 -0.46001,0.46002 z m -12,-12 c -0.25301,0 -1.60301,-1.35 -3,-3 l -2.53999,-3 3,2.53998 c 1.65,1.39699 3,2.74699 3,3 0,0.25301 -0.20701,0.46002 -0.46001,0.46002 z"
         id="path1660" />
      <path
         style="fill:#003f79;stroke-width:1.33333"
         d="m 242.88513,1064.0386 c -8.8,0.3323 -18.7,0.3815 -22,0.1094 -3.3,-0.2722 -11.7,-1.1461 -18.66666,-1.9421 -6.96667,-0.796 -16.86667,-2.3537 -22,-3.4615 -5.13334,-1.1078 -13.38334,-3.1883 -18.33334,-4.6233 -4.95,-1.4351 -11.66849,-2.4027 -11.66432,-2.555 0.004,-0.1522 8.46359,-17.24 16.79662,-36.8827 8.33302,-19.64281 15.2441,-35.54213 15.55794,-35.85598 0.31386,-0.31384 7.44002,0.72721 14.3723,2.15228 6.93226,1.42507 19.50413,2.97857 27.93746,3.45225 9.06351,0.50906 21.24346,0.21924 29.78698,-0.7088 7.94949,-0.8635 20.11032,-3.03973 27.02405,-4.83608 6.91373,-1.79633 17.8096,-5.37528 24.21303,-7.95321 6.40344,-2.57792 16.44261,-7.46488 22.30928,-10.85991 5.86666,-3.39502 14.86666,-9.32766 20,-13.18363 5.13333,-3.85598 13.68333,-11.33822 19,-16.6272 5.31666,-5.28898 9.66666,-10.09468 9.66666,-10.67934 0,-0.58465 -8.85,-7.30289 -19.66666,-14.92942 -10.81667,-7.62654 -20.44054,-14.32828 -21.38638,-14.89276 -1.12749,-0.67291 -4.86097,1.93696 -10.84146,7.57865 -5.01698,4.73276 -11.74311,10.40436 -14.94696,12.60356 -3.20387,2.1992 -10.6252,6.39243 -16.49187,9.31828 -5.86667,2.92584 -14.56667,6.59052 -19.33333,8.14371 -4.76667,1.5532 -14.36667,3.80884 -21.33334,5.01253 -9.23004,1.59476 -16.64592,1.97164 -27.33333,1.38909 -8.06667,-0.43968 -19.46667,-1.96653 -25.33333,-3.39297 -5.86667,-1.42645 -15.53942,-4.64951 -21.495,-7.16233 -5.95559,-2.51283 -16.05032,-7.97264 -22.43275,-12.13291 -6.38241,-4.16028 -16.04396,-12.00371 -21.47011,-17.42984 -5.42613,-5.42615 -13.26956,-15.08769 -17.42984,-21.4701 -4.16026,-6.38243 -9.4729,-16.17716 -11.80586,-21.76608 -2.33296,-5.58891 -5.2113,-13.76166 -6.396315,-18.16166 -1.185015,-4.4 -2.871714,-13.04996 -3.748219,-19.22213 -0.953024,-6.71101 -1.253384,-16.41427 -0.747193,-24.13838 0.465549,-7.10394 2.34975,-18.85398 4.187114,-26.1112 1.837373,-7.25723 5.731193,-18.184 8.652953,-24.28175 2.92176,-6.09773 8.42418,-15.58829 12.2276,-21.09013 3.80342,-5.50184 12.14186,-14.91277 18.52987,-20.9132 6.38801,-6.00043 16.48988,-13.84515 22.44857,-17.43269 5.95871,-3.58756 16.07918,-8.48742 22.48992,-10.88856 6.41076,-2.40114 16.45592,-5.35547 22.32259,-6.56518 6.48159,-1.33649 16.94428,-2.19394 26.66667,-2.18542 9.39597,0.008 20.12752,0.88179 26,2.11641 5.5,1.15632 13,3.07257 16.66666,4.25836 3.66667,1.18577 9.57634,3.61333 13.13258,5.39456 3.55625,1.78124 6.64,3.04827 6.85277,2.81563 0.21277,-0.23264 7.50312,-9.20799 16.20076,-19.94524 8.69764,-10.73724 27.15479,-33.98724 41.01588,-51.66666 13.86111,-17.67942 25.61343,-32.14441 26.11628,-32.14441 0.50287,0 4.46196,2.51361 8.79801,5.58579 4.33604,3.07219 12.17988,9.06673 17.43075,13.32122 5.25085,4.25448 14.10631,12.29472 19.67877,17.86719 5.57248,5.57246 13.69739,14.49534 18.05536,19.82861 4.35798,5.33328 11.47879,15.02944 15.82403,21.54703 4.34524,6.51759 10.61731,16.95016 13.93795,23.18349 3.32062,6.23334 8.76848,18.23334 12.10633,26.66667 3.33785,8.43333 7.85601,22.27381 10.04036,30.75661 2.18435,8.48281 4.91023,22.15344 6.05752,30.37919 1.20099,8.61069 2.08599,24.25072 2.08599,36.86419 0,12.61348 -0.885,28.25351 -2.08599,36.8642 -1.14729,8.22575 -3.80248,21.59638 -5.90041,29.71252 -2.09794,8.11614 -5.71008,19.85661 -8.02699,26.08995 -3.35407,9.0237 -6.77088,26.37493 -16.76624,85.14231 -6.90455,40.59489 -12.55371,75.30489 -12.55371,77.13329 0,2.0085 -1.80996,5.1344 -4.5724,7.8968 l -4.57238,4.5724 -10.42762,-0.7102 c -5.73517,-0.3905 -35.6276,-1.3111 -66.4276,-2.0456 -30.8,-0.7345 -62,-1.448 -69.33333,-1.5856 -7.33333,-0.1376 -19.93333,0.7225 -28,1.9114 -8.06667,1.1888 -21.86667,2.4333 -30.66667,2.7656 z M 398.00519,890.70321 c 1.02604,-1.32643 4.11402,-7.21168 6.8622,-13.07835 2.74817,-5.86666 6.5829,-15.40422 8.52162,-21.19458 1.93871,-5.79036 4.80764,-16.59036 6.37539,-24 2.23337,-10.55563 2.86125,-18.23468 2.90039,-35.47208 0.0357,-15.74834 -0.6163,-25.39625 -2.29458,-33.95162 -1.28949,-6.57339 -4.17413,-17.67339 -6.41032,-24.66667 -2.2362,-6.99327 -6.75704,-18.11504 -10.04633,-24.71504 -3.28929,-6.6 -9.32148,-17.05081 -13.40488,-23.22404 -4.08339,-6.17322 -13.39523,-17.42322 -20.69297,-25 -7.29775,-7.57677 -13.74472,-13.77596 -14.32662,-13.77596 -0.5819,0 -7.79517,8.25 -16.02949,18.33334 -8.23432,10.08333 -15.55527,19.08289 -16.26876,19.99901 -0.93292,1.19787 1.2244,4.33875 7.68135,11.18347 4.93824,5.23478 12.21725,14.4863 16.17558,20.55893 3.95835,6.07262 9.03151,15.35222 11.27371,20.6213 2.2422,5.2691 5.25823,14.16802 6.70228,19.77539 1.44404,5.60737 3.16159,15.77977 3.81675,22.60532 0.73133,7.61917 0.69292,17.28045 -0.0995,25.02593 -0.70988,6.93871 -2.79589,17.85416 -4.63559,24.25657 -1.83969,6.4024 -5.12726,15.48034 -7.30572,20.17318 -2.17844,4.69284 -3.80041,8.65077 -3.60436,8.79541 0.19606,0.14464 9.93872,6.99029 21.65039,15.21257 19.86525,13.94659 21.41909,14.7878 23.15945,12.53792 z m -164.56197,-3.1951 c 3.96711,0 8.01058,-0.60926 11.74219,-2.57931 3.232,-1.70631 6.67612,-4.84503 8.54229,-8.17663 l 3.46213,-6.1808 0.97804,-26.27205 0.71722,-22.67445 24.66042,0.4398 15.52859,-0.50556 5.55761,-0.92723 4.27686,-1.91408 3.13484,-1.60196 c 3.30978,-2.5502 7.27853,-6.03006 8.92268,-8.93289 2.02013,-3.56663 3.15419,-7.68688 3.78666,-12.11304 0.53785,-3.76405 -1.67096,-8.94852 -2.77293,-10.98856 -1.03632,-1.91851 -1.52894,-4.12315 -4.75569,-7.05524 -1.88011,-1.70843 -4.90978,-5.35001 -7.85917,-6.16389 -5.3223,-1.4687 -6.9892,-2.04262 -26.72837,-2.13099 l -23.75146,-0.10633 0.0703,-22.10422 c 0.0388,-12.19267 -0.47256,-17.55514 -1.02628,-21.41369 -0.39382,-2.74432 -0.81443,-4.82069 -2.50934,-7.61661 -3.47845,-5.73804 -5.09738,-7.10214 -10.81155,-10.61916 -1.33556,-0.82202 -2.93393,-1.25458 -4.4625,-1.68189 -2.8216,-0.78877 -5.58467,-1.16564 -7.28307,-1.161 -2.61851,0.007 -7.35313,0.73519 -11.09277,2.47648 -3.73962,1.74131 -7.57238,4.59008 -9.03725,6.69163 -1.46488,2.10153 -2.82302,6.00225 -3.66853,8.49501 -0.90552,2.66975 -1.17043,12.85248 -1.53869,25.29616 l -0.64033,21.63724 -23.32921,0.65601 c -21.59925,0.60736 -22.33266,0.1921 -28.7352,2.61704 -1.84466,0.69867 -3.2889,1.99792 -4.70862,3.33856 -1.50485,1.42103 -2.89012,2.83205 -3.98902,4.19568 -1.79573,2.22832 -3.60956,6.46407 -4.30444,9.58233 -0.69488,3.11828 -0.69155,7.52017 -0.15215,9.90189 0.53941,2.38173 1.95444,6.11601 3.14444,8.41198 1.19,2.29599 4.15139,5.12369 6.40051,7.01619 2.2491,1.8925 6.04777,3.63009 8.775,4.38752 2.72722,0.75743 14.04404,1.07127 25.54869,1.07535 l 22.01667,0.1508 -0.33431,26.04896 0.77988,18.85566 0.9973,6.45147 2.26957,4.31451 c 1.77761,3.37927 7.0326,6.93078 10.2646,8.63709 3.73161,1.96949 7.94728,2.24222 11.91438,2.24222 z"
         id="path1658"
         sodipodi:nodetypes="scsscccsssssssssssssssssssssssssssssssssscsssssssssssssssssssssssccsscsssssssssssssssssssssssssssssccccccccsssssscssssscsssscssssssssscccccscss" />
    </g>
  </g>
</svg>
