<?xml version="1.0" encoding="UTF-8" standalone="no"?>
<!-- Created with Inkscape (http://www.inkscape.org/) -->

<svg
   width="485.66537mm"
   height="141.83015mm"
   viewBox="0 0 485.66537 141.83015"
   version="1.1"
   id="svg5"
   inkscape:version="1.1 (1:1.1+202105261517+ce6663b3b7)"
   sodipodi:docname="sifaho-brand-dark.svg"
   xmlns:inkscape="http://www.inkscape.org/namespaces/inkscape"
   xmlns:sodipodi="http://sodipodi.sourceforge.net/DTD/sodipodi-0.dtd"
   xmlns:xlink="http://www.w3.org/1999/xlink"
   xmlns="http://www.w3.org/2000/svg"
   xmlns:svg="http://www.w3.org/2000/svg">
  <sodipodi:namedview
     id="namedview7"
     pagecolor="#ffffff"
     bordercolor="#666666"
     borderopacity="1.0"
     inkscape:pageshadow="2"
     inkscape:pageopacity="0.0"
     inkscape:pagecheckerboard="0"
     inkscape:document-units="mm"
     showgrid="false"
     fit-margin-top="0"
     fit-margin-left="0"
     fit-margin-right="0"
     fit-margin-bottom="0"
     inkscape:zoom="1"
     inkscape:cx="397.5"
     inkscape:cy="163.5"
     inkscape:window-width="1872"
     inkscape:window-height="1016"
     inkscape:window-x="48"
     inkscape:window-y="27"
     inkscape:window-maximized="1"
     inkscape:current-layer="layer1" />
  <defs
     id="defs2">
    <color-profile
       name="EULCD-2400DFE"
       xlink:href="../.local/share/icc/edid-9e507f0f442d22cb88e3e29eb606dd30.icc"
       id="color-profile1325" />
  </defs>
  <g
     inkscape:label="Capa 1"
     inkscape:groupmode="layer"
     id="layer1"
     transform="translate(138.84639,-61.488323)">
    <g
       id="g262"
       transform="translate(-17.735846,-2.2658021)"
       style="fill:#dddddd;fill-opacity:1">
      <path
         style="fill:#dddddd;fill-opacity:1;stroke-width:0.352778"
         d="m -86.035142,100.23397 c 0.351187,-0.388058 0.717896,-0.705558 0.81491,-0.705558 0.09701,0 -0.110945,0.3175 -0.462132,0.705558 -0.351185,0.38805 -0.717894,0.70555 -0.814908,0.70555 -0.09701,0 0.110945,-0.3175 0.46213,-0.70555 z M -102.79209,86.69522 c 0,-0.07326 0.27782,-0.351069 0.61737,-0.617361 0.55952,-0.43881 0.572,-0.426332 0.13319,0.133193 -0.46086,0.587639 -0.75056,0.774516 -0.75056,0.484168 z"
         id="path270" />
      <path
         style="fill:#dddddd;fill-opacity:1;stroke-width:0.352778"
         d="m -121.10868,139.18651 c 0.0169,-0.41097 0.10052,-0.49456 0.21314,-0.21314 0.1019,0.25466 0.0894,0.55893 -0.0279,0.67616 -0.11723,0.11723 -0.20061,-0.0911 -0.18529,-0.46302 z"
         id="path268" />
      <path
         style="fill:#dddddd;fill-opacity:1;stroke-width:0.352778"
         d="m -60.105976,205.17197 c -8.072874,-1.22152 -15.737889,-3.60442 -22.44484,-6.97766 -3.162656,-1.59064 -9.647249,-5.74916 -11.598215,-7.43784 -0.582083,-0.50382 -1.766629,-1.51156 -2.632325,-2.23942 -3.271204,-2.75034 -8.189804,-8.00575 -10.169694,-10.86608 -0.52597,-0.75986 -1.23413,-1.69198 -1.57367,-2.07137 -0.33955,-0.37939 -0.61737,-0.89798 -0.61737,-1.15244 0,-0.25445 -0.1852,-0.46264 -0.41157,-0.46264 -0.22637,0 -0.31043,-0.10115 -0.18681,-0.22477 0.2198,-0.2198 -1.00226,-2.20944 -1.61961,-2.6369 -0.17144,-0.11871 -0.3222,-0.35683 -0.33502,-0.52916 -0.0128,-0.17234 -0.83269,-1.98782 -1.82195,-4.03441 -0.98925,-2.04659 -2.01308,-4.26909 -2.27515,-4.93889 -0.26208,-0.6698 -0.69406,-1.70839 -0.95994,-2.30797 -0.39035,-0.88024 -1.19641,-3.54735 -1.69627,-5.61262 -0.047,-0.19403 -0.18852,-0.67028 -0.31457,-1.05834 -0.21336,-0.65687 -0.47005,-1.83641 -0.76769,-3.52778 -0.0683,-0.38805 -0.23664,-1.34055 -0.37412,-2.11666 -1.44598,-8.16308 -1.31229,-17.9392 0.36183,-26.45833 0.0763,-0.38806 0.376,-1.57868 0.6661,-2.64584 0.2901,-1.06715 0.60657,-2.38989 0.70329,-2.93941 0.14929,-0.84831 0.62027,-2.3197 1.54337,-4.8217 0.10738,-0.29104 0.21457,-0.60854 0.2382,-0.70555 0.0236,-0.097 0.24137,-0.53358 0.48385,-0.97014 0.24249,-0.43656 0.35826,-0.79375 0.25727,-0.79375 -0.10099,0 0.11348,-0.48853 0.47659,-1.08562 0.36312,-0.59709 0.58039,-1.39084 0.48284,-1.76389 -0.10071,-0.38513 0.002,-0.67827 0.23737,-0.67827 0.22811,0 0.31663,-0.15875 0.19672,-0.35278 -0.11992,-0.19402 -0.0405,-0.35277 0.17639,-0.35277 0.21693,0 0.2963,-0.15875 0.17638,-0.35278 -0.11991,-0.19403 -0.0405,-0.35278 0.17639,-0.35278 0.21693,0 0.29631,-0.15875 0.17639,-0.35278 -0.11991,-0.19402 -0.0405,-0.35277 0.17639,-0.35277 0.21693,0 0.29631,-0.15875 0.17639,-0.35278 -0.11992,-0.19403 -0.0602,-0.35278 0.13273,-0.35278 0.19292,0 0.55168,-0.55562 0.79725,-1.23472 0.24556,-0.679099 0.58271,-1.234724 0.74921,-1.234724 0.1665,0 0.20461,-0.15875 0.0847,-0.352778 -0.11992,-0.194027 -0.0499,-0.352777 0.15557,-0.352777 0.20548,0 0.3736,-0.180937 0.3736,-0.402081 0,-0.221145 0.2294,-0.578332 0.50977,-0.79375 0.28038,-0.215418 0.5582,-0.610552 0.61737,-0.878075 0.0592,-0.267523 0.46477,-0.85562 0.90133,-1.306881 0.43656,-0.451262 0.79375,-1.027629 0.79375,-1.280818 0,-0.253188 0.32366,-0.662471 0.71924,-0.909518 0.39559,-0.247046 0.63462,-0.586098 0.53119,-0.753449 -0.10342,-0.167351 0.0492,-0.395301 0.33909,-0.506557 0.28993,-0.111255 0.52714,-0.44539 0.52714,-0.742521 0,-0.297131 0.13974,-0.540238 0.31052,-0.540238 0.17078,0 1.7878,-1.687368 3.59337,-3.749705 3.88874,-4.441756 7.276457,-7.411268 12.323892,-10.802543 3.659113,-2.458489 12.352146,-6.966412 13.434952,-6.966928 0.307213,-1.47e-4 0.670401,-0.112103 0.807092,-0.248791 0.136687,-0.136688 0.666027,-0.304436 1.176313,-0.372772 0.510282,-0.06834 1.496469,-0.376684 2.191522,-0.685217 0.695054,-0.308534 1.452848,-0.601621 1.683992,-0.651307 0.231143,-0.04968 1.818643,-0.41408 3.527778,-0.809767 1.709134,-0.395686 3.74887,-0.810672 4.532749,-0.922189 0.78388,-0.111518 1.815755,-0.285345 2.293056,-0.386282 3.632281,-0.768134 15.433661,-0.88956 19.741433,-0.203123 1.455209,0.231886 4.349264,0.826413 6.431234,1.321172 2.081971,0.494759 3.889848,0.872903 4.017504,0.840321 0.127656,-0.03258 0.329223,0.08966 0.447933,0.27165 0.118706,0.181989 1.088954,0.604742 2.156107,0.939451 1.067153,0.334709 2.178403,0.701594 2.469444,0.815301 0.291042,0.113706 0.608542,0.231778 0.705556,0.262381 1.172788,0.369956 9.700799,4.590849 10.16756,5.032377 0.256392,0.242535 0.692954,0.440972 0.970139,0.440972 0.277181,0 0.503967,0.168119 0.503967,0.373598 0,0.205478 0.136681,0.289124 0.303735,0.185878 0.391813,-0.242152 4.745002,2.759023 8.1504999,5.61911 11.2296926,9.4312 19.5524331,22.85844 23.0661491,37.21308 3.319854,13.56263 2.452539,29.00421 -2.360645,42.02862 -1.035759,2.80275 -1.714323,6.29694 -4.477977,23.05887 -1.791483,10.86555 -3.4680173,20.26432 -3.7256332,20.88614 -0.6904849,1.66664 -2.146173,2.28285 -4.8177802,2.03939 -1.2119963,-0.11045 -10.4611062,-0.42554 -20.5535846,-0.70021 -16.40618,-0.44649 -18.64833,-0.44196 -21.166666,0.0428 -4.058041,0.78114 -17.632923,0.9636 -22.043097,0.29629 z m 20.898132,-22.16749 c 9.163427,-2.14631 18.246594,-7.23411 24.610201,-13.78505 1.568386,-1.61456 1.838854,-2.05776 1.411111,-2.31231 -0.291042,-0.17321 -2.749402,-1.89298 -5.463022,-3.82171 l -4.933854,-3.5068 -2.121701,1.96827 c -10.894455,10.10663 -27.172358,12.68384 -40.616398,6.43063 -14.224875,-6.61639 -22.786202,-21.83568 -20.947257,-37.23748 2.005066,-16.79313 14.250342,-29.63339 30.786924,-32.28282 5.965274,-0.955736 14.226656,0.0194 19.70726,2.32615 1.126038,0.47394 2.183373,0.86172 2.34963,0.86172 0.282691,0 8.250125,-9.587497 8.456796,-10.176367 0.103794,-0.295739 -2.158471,-1.460583 -3.243841,-1.670258 -0.373793,-0.07221 -0.807925,-0.333448 -0.964734,-0.580528 -0.15681,-0.24708 -0.287543,-0.310736 -0.290513,-0.141457 -0.0028,0.169278 -0.218443,0.130968 -0.478832,-0.08513 -0.260386,-0.216102 -0.577886,-0.288457 -0.705556,-0.160788 -0.127667,0.127668 -0.232124,0.08093 -0.232124,-0.103855 0,-0.184788 -0.277813,-0.355629 -0.617361,-0.379646 -0.339549,-0.02402 -1.922389,-0.444386 -3.51742,-0.934155 -5.025641,-1.543167 -9.817015,-2.113826 -15.797163,-1.881464 -5.467519,0.212444 -8.53525,0.725718 -13.39881,2.241809 -2.997362,0.93435 -10.412264,4.261948 -10.849261,4.868839 -0.14255,0.197971 -0.261613,0.238894 -0.264583,0.09094 -0.0054,-0.270601 -2.637568,1.280374 -3.393906,1.999845 -0.223079,0.212206 -0.761975,0.623955 -1.197546,0.914997 -1.97558,1.320054 -4.015765,3.226208 -6.173671,5.768088 -0.776111,0.91421 -1.575616,1.85569 -1.776676,2.0922 -1.318651,1.55105 -2.242655,2.99585 -2.043396,3.19511 0.128424,0.12842 0.04829,0.23349 -0.178076,0.23349 -0.226366,0 -0.411574,0.23813 -0.411574,0.52916 0,0.29104 -0.168119,0.52917 -0.373598,0.52917 -0.205479,0 -0.274792,0.15987 -0.154029,0.35527 0.120763,0.19541 -0.02771,0.45015 -0.329932,0.56613 -0.302225,0.11598 -0.461668,0.35298 -0.354317,0.52667 0.10735,0.1737 0.01769,0.31582 -0.199235,0.31582 -0.21693,0 -0.304685,0.14519 -0.195011,0.32265 0.109674,0.17745 0.05991,0.37588 -0.110588,0.44097 -1.00634,0.38412 -3.954604,8.53542 -5.236774,14.47853 -0.907672,4.20722 -0.894343,15.13403 0.02356,19.31152 1.506677,6.85708 4.320099,13.37125 8.208732,19.00641 1.295559,1.87745 2.49033,3.46645 2.655045,3.53111 0.164715,0.0647 0.299482,0.31699 0.299482,0.5607 0,0.44755 5.624703,6.00516 6.897098,6.81482 0.378192,0.24065 1.560749,1.03537 2.627902,1.76604 2.062847,1.41241 3.885917,2.36905 4.321527,2.26769 0.145521,-0.0339 0.264584,0.10656 0.264584,0.31204 0,0.20548 0.15875,0.27548 0.352778,0.15556 0.194027,-0.11991 0.352777,-0.0405 0.352777,0.17639 0,0.21693 0.15875,0.29631 0.352778,0.17639 0.194028,-0.11991 0.352778,-0.0405 0.352778,0.17639 0,0.21693 0.15875,0.29631 0.352778,0.17639 0.194027,-0.11992 0.352777,-0.0847 0.352777,0.0782 0,0.62566 6.085734,2.68089 10.583334,3.57412 5.380284,1.06853 5.296111,1.06182 11.641666,0.92886 4.67022,-0.0978 6.569692,-0.29736 9.609243,-1.0093 z m 35.3425683,-30.55941 c 6.6590085,-17.17247 3.15717055,-36.47202 -9.1790303,-50.58801 -1.339406,-1.53264 -3.070282,-3.305339 -3.846393,-3.939321 l -1.411111,-1.152694 -4.173294,5.105375 -4.173297,5.10537 2.616383,2.73854 c 4.637574,4.85409 7.730493,10.82556 9.159169,17.68352 0.578842,2.77855 0.668528,4.25587 0.524718,8.64306 -0.188655,5.75522 -0.984207,9.35282 -3.055006,13.81516 l -1.008637,2.17349 5.523036,3.88845 5.523039,3.88844 1.3056199,-2.53416 c 0.7180898,-1.39379 1.7057511,-3.56604 2.1948034,-4.82722 z m -42.7047613,5.17429 c 2.411507,-1.83935 2.691839,-2.89108 2.691839,-10.09912 v -6.36405 l 6.085416,-0.008 c 5.139817,-0.007 6.306954,-0.10838 7.511122,-0.65535 2.374819,-1.07873 4.033922,-3.6721 4.040382,-6.31559 0.0045,-1.84411 -1.842484,-4.75756 -3.702198,-5.83986 -0.433007,-0.25198 -3.226626,-0.47874 -7.231945,-0.58699 l -6.526388,-0.17639 -0.176389,-6.37738 c -0.171165,-6.18851 -0.204431,-6.4197 -1.123252,-7.80656 -2.685125,-4.05292 -9.199181,-3.81282 -11.524671,0.42478 -0.456392,0.83165 -0.619132,2.42316 -0.757633,7.40916 l -0.176388,6.35 -6.586503,0.17639 c -6.284679,0.16831 -6.640332,0.2158 -7.76111,1.03635 -3.449666,2.52556 -4.070894,6.81264 -1.44023,9.939 1.761709,2.09368 3.067117,2.41378 9.878815,2.42246 l 6.085416,0.008 v 6.36405 c 0,5.54885 0.08557,6.53171 0.668017,7.67292 1.35709,2.65898 3.218797,3.67935 6.426468,3.52224 1.902322,-0.0932 2.56916,-0.29511 3.619232,-1.09604 z m 115.051559,7.02413 c -0.194028,-0.0733 -1.543403,-0.40067 -2.998611,-0.7276 -1.455209,-0.32693 -3.962739,-1.22401 -5.572288,-1.99352 -3.963864,-1.89507 -4.302442,-2.47921 -4.304171,-7.42586 -0.0016,-4.57827 0.301354,-5.57921 1.688663,-5.57921 0.551039,0 2.666855,0.84597 4.701819,1.87995 4.58762,2.33099 7.383155,3.05893 11.747326,3.05893 6.645762,0 10.435872,-2.88374 10.435872,-7.94022 0,-3.35901 -2.208678,-5.73539 -7.761111,-8.35039 -10.738005,-5.05724 -11.694166,-5.61037 -14.483372,-8.37851 -2.774089,-2.75313 -4.193762,-5.12366 -4.898048,-8.17864 -0.513348,-2.22674 -0.447269,-7.94473 0.116272,-10.06116 1.21272,-4.5545 4.746311,-8.90135 8.968627,-11.032772 6.704485,-3.384411 17.88898,-3.396912 24.948144,-0.02787 3.215937,1.534822 3.51414,2.137632 3.50828,7.091952 -0.0071,5.96889 -0.530338,6.30691 -5.721816,3.69621 -4.184082,-2.1041 -6.331941,-2.6812 -9.944477,-2.67194 -3.397514,0.009 -5.203962,0.62809 -6.792693,2.32902 -2.607586,2.79173 -2.172674,6.99367 0.994032,9.60393 0.715846,0.59006 2.427016,1.62094 3.802602,2.29083 1.375583,0.6699 4.961685,2.41285 7.969116,3.87323 7.789365,3.78244 11.084341,6.95557 12.737197,12.26622 0.84178,2.70464 0.906078,8.43201 0.128188,11.41853 -1.699993,6.52671 -6.335133,11.16359 -13.663397,13.66854 -3.078762,1.05238 -3.590494,1.11976 -9.256154,1.21875 -3.298473,0.0576 -6.155973,0.0449 -6.35,-0.0284 z m 255.846358,-0.39168 c -5.69154,-1.0667 -11.50792,-4.12514 -14.52216,-7.63623 -4.60598,-5.36524 -6.77514,-12.19957 -7.14605,-22.51495 -0.69797,-19.41221 6.61007,-31.59863 21.4042,-35.692342 2.0128,-0.55697 4.07331,-0.775013 8.55927,-0.905744 6.77626,-0.197475 10.28611,0.200034 14.61734,1.655493 7.24257,2.433773 12.22118,7.358523 14.92289,14.761443 1.65622,4.53812 2.14429,7.51881 2.35148,14.36032 0.3526,11.6435 -1.60849,19.35023 -6.62489,26.0344 -3.34472,4.45675 -8.53669,7.82039 -14.61361,9.46747 -3.67908,0.99719 -14.67996,1.27014 -18.94847,0.47014 z m 16.38427,-12.07717 c 4.16885,-2.05231 7.21847,-6.0226 8.54862,-11.12947 1.76788,-6.78729 1.46671,-16.60692 -0.69448,-22.64315 -1.66909,-4.66178 -4.69505,-7.6743 -9.07432,-9.03403 -3.25399,-1.01035 -9.28384,-0.83423 -12.34835,0.36066 -4.11237,1.60349 -7.86349,6.28865 -9.2038,11.49559 -1.35735,5.27329 -1.3782,14.41224 -0.046,20.15664 1.03043,4.44305 3.43341,8.20232 6.42482,10.05113 2.61038,1.61329 4.90118,2.08136 9.65828,1.97341 4.18172,-0.0949 4.57324,-0.16643 6.73523,-1.23078 z m -231.04382,11.40302 -1.14653,-0.51519 V 131.10105 99.139633 l 1.30078,-0.543502 c 1.70825,-0.713755 10.61326,-0.573304 11.52202,0.181727 0.53394,0.443609 0.58275,3.151332 0.58275,32.324162 0,29.17128 -0.0488,31.88057 -0.58268,32.32416 -0.87518,0.72722 -10.12793,0.84725 -11.67634,0.15148 z m 27.51666,-0.0169 -1.14653,-0.49832 v -31.265 -31.265 l 1.0312,-1.031194 1.0312,-1.031198 h 16.77594 16.77595 l 0.5814,0.887325 c 0.83321,1.271627 0.83321,7.889827 0,9.161457 l -0.5814,0.88733 h -11.10436 -11.10437 v 8.81944 8.81945 h 10.57092 10.57092 l 0.45081,0.79375 c 0.61085,1.07554 0.61085,7.92028 0,8.99583 l -0.45081,0.79375 h -10.57092 -10.57092 v 12.718 12.718 l -1.22339,0.51116 c -1.66448,0.69547 -9.42546,0.68507 -11.03564,-0.0148 z m 35.22683,-0.0521 c -0.70826,-0.49609 -0.79681,-0.78374 -0.62443,-2.02848 0.31922,-2.30506 21.03958,-61.687205 21.80163,-62.480955 0.6361,-0.662563 1.13835,-0.705555 8.2425,-0.705555 7.21408,0 7.59949,0.03436 8.30572,0.7406 0.72762,0.727615 21.4592,59.47118 21.99351,62.31924 0.1953,1.04104 0.10189,1.43626 -0.47603,2.01419 -0.66474,0.66472 -1.1535,0.71902 -6.47244,0.71902 -4.36133,0 -5.91604,-0.11892 -6.42557,-0.4915 -0.42989,-0.31434 -1.51382,-3.01633 -3.00731,-7.49652 l -2.33515,-7.00504 h -12.1098 -12.10979 l -2.32463,7.05556 c -1.97681,5.99991 -2.45658,7.12075 -3.20657,7.49133 -0.56665,0.27998 -2.588,0.43763 -5.65414,0.44097 -3.85642,0.004 -4.93057,-0.10573 -5.5975,-0.57286 z M 210.1218,138.4222 c 0,-0.61172 -8.9465,-27.04469 -9.04465,-26.72298 -0.0592,0.19403 -2.07672,6.34559 -4.48338,13.67014 l -4.37576,13.31736 h 8.9519 c 4.92353,0 8.95189,-0.11903 8.95189,-0.26452 z m 31.48541,25.15544 -1.14653,-0.51519 v -31.9614 -31.961417 l 1.2234,-0.511167 c 1.68963,-0.70598 9.26913,-0.70598 10.95876,0 l 1.2234,0.511167 v 12.541607 12.54161 h 12.17083 12.17084 v -12.48041 c 0,-11.1761 0.0609,-12.531013 0.58307,-12.964582 0.6454,-0.535903 8.39043,-0.90872 10.53197,-0.506968 2.46577,0.462583 2.29051,-2.049527 2.29051,32.83113 0,34.88066 0.17526,32.36855 -2.29051,32.83113 -2.14154,0.40175 -9.88657,0.0289 -10.53197,-0.50697 -0.52395,-0.43507 -0.58307,-1.87493 -0.58307,-14.1993 v -13.71514 h -12.17084 -12.17083 v 13.71514 c 0,12.32045 -0.0593,13.76437 -0.58268,14.1993 -0.87517,0.72722 -10.12794,0.84725 -11.67635,0.15148 z"
         id="path266" />
      <path
         style="fill:#dddddd;fill-opacity:1;stroke-width:0.352778"
         d="m -120.7559,141.65595 c 0.0169,-0.41096 0.10052,-0.49455 0.21314,-0.21313 0.1019,0.25466 0.0894,0.55893 -0.0279,0.67616 -0.11722,0.11722 -0.2006,-0.0911 -0.18528,-0.46303 z m -0.26771,-6.84976 c 0,-1.26118 0.064,-1.77712 0.14228,-1.14653 0.0783,0.63059 0.0783,1.66246 0,2.29305 -0.0783,0.63059 -0.14228,0.11466 -0.14228,-1.14652 z m 0.29556,-7.05556 c 0,-0.48507 0.0801,-0.68351 0.17794,-0.44097 0.0979,0.24253 0.0979,0.63941 0,0.88194 -0.0979,0.24254 -0.17794,0.0441 -0.17794,-0.44097 z m 0.32493,-3.02801 c 0.0169,-0.41097 0.10052,-0.49456 0.21313,-0.21313 0.10191,0.25466 0.0894,0.55893 -0.0279,0.67615 -0.11722,0.11723 -0.2006,-0.0911 -0.18528,-0.46302 z m 34.897145,-25.327403 c 0,-0.07325 0.277812,-0.351067 0.617361,-0.617359 0.559527,-0.43881 0.572004,-0.426333 0.133195,0.133193 -0.460859,0.587639 -0.750556,0.774516 -0.750556,0.484166 z M -104.2032,88.239524 c 0,-0.194028 0.16812,-0.352778 0.3736,-0.352778 0.20548,0 0.27549,0.15875 0.15557,0.352778 -0.11992,0.194028 -0.28803,0.352778 -0.3736,0.352778 -0.0856,0 -0.15557,-0.15875 -0.15557,-0.352778 z"
         id="path264" />
    </g>
  </g>
</svg>
