<svg xmlns="http://www.w3.org/2000/svg" viewBox="0 0 111.42 36.56"><defs><style>.cls-1{fill:#58595b;}.cls-1,.cls-7{fill-rule:evenodd;}.cls-2{fill:none;stroke:#fff;stroke-linecap:round;stroke-linejoin:round;stroke-width:0.52px;stroke-dasharray:0.52 1.55;}.cls-3{fill:#ee2962;}.cls-4{fill:#65b646;}.cls-5{fill:#3386c7;}.cls-6{fill:#f9c627;}.cls-7,.cls-8{fill:#19468d;}</style></defs><title>Recurso 1</title><g id="Capa_2" data-name="Capa 2"><g id="Capa_1-2" data-name="Capa 1"><path class="cls-1" d="M5.45,36.56H7.72L5.83,33.63a2.93,2.93,0,0,0,1.66-2.87c0-2-1.32-3.08-3.64-3.08H0v8.88H2V34H4l1.41,2.54ZM2,32.35v-3H3.85c1.1,0,1.74.49,1.74,1.48S5,32.35,3.85,32.35Zm14.06-3V27.68H9.31v8.88h6.9V34.9H11.31v-2h4.29V31.27H11.31V29.34Zm1.84-1.66v8.88h3.69a4.45,4.45,0,1,0,.08-8.88Zm2,1.69h1.72a2.62,2.62,0,0,1,2.66,2.76,2.56,2.56,0,0,1-2.57,2.74H19.91Z"/><line class="cls-2" x1="12.37" y1="7.46" x2="17.91" y2="17.05"/><path class="cls-1" d="M21.51,11.45a.26.26,0,1,1,.51.1l-.1.51a.26.26,0,0,1-.51-.1l.1-.51Zm-.36,4.66a.26.26,0,1,1-.51-.1l.1-.51a.26.26,0,1,1,.51.1l-.1.51Zm.39-2A.26.26,0,0,1,21,14l.1-.51a.26.26,0,0,1,.51.1Z"/><path class="cls-1" d="M20.31,7.95a.26.26,0,0,1-.18.48l-.48-.18a.26.26,0,0,1,.18-.48l.48.18ZM13.84,6.1A.26.26,0,0,1,14,5.62l.48.18a.26.26,0,1,1-.18.48l-.48-.18Zm1.93.72A.26.26,0,0,1,16,6.33l.48.18a.26.26,0,0,1-.18.48l-.48-.18Zm1.93.72a.26.26,0,0,1,.18-.48l.48.18a.26.26,0,0,1-.18.48Z"/><path class="cls-1" d="M8.26,7.34a.28.28,0,0,1,.54.17l-.17.54a.28.28,0,1,1-.54-.17l.17-.54Zm-1,5a.28.28,0,0,1-.54-.17l.17-.54a.28.28,0,0,1,.54.17l-.17.54Zm.69-2.16A.28.28,0,1,1,7.4,10l.17-.54a.28.28,0,1,1,.54.17Z"/><path class="cls-1" d="M8.13,19.49a.26.26,0,0,1,.12-.5l.5.12a.26.26,0,0,1-.12.5l-.5-.12Zm6.64,1.06a.26.26,0,1,1-.12.5l-.5-.12a.26.26,0,1,1,.12-.5l.5.12Zm-2-.48a.26.26,0,1,1-.12.5l-.5-.12a.26.26,0,1,1,.12-.5l.5.12Zm-2-.48a.26.26,0,0,1-.12.5l-.5-.12a.26.26,0,1,1,.12-.5Z"/><circle class="cls-3" cx="10.48" cy="4.58" r="3.45"/><circle class="cls-4" cx="19.95" cy="20.99" r="4.43"/><circle class="cls-5" cx="5.58" cy="16.7" r="3.64"/><circle class="cls-6" cx="21.77" cy="9.48" r="2.02"/><path class="cls-1" d="M34.57,28.69v-.46H32.12v.46h1v2.6h.52v-2.6Zm2.63,0v-.46H35v3.06h2.24v-.46H35.53V30H37v-.46H35.53v-.83Zm2-.48a1.55,1.55,0,1,0,0,3.09,1.74,1.74,0,0,0,1.18-.5l-.31-.34a1.26,1.26,0,0,1-.85.36,1.08,1.08,0,1,1,0-2.15,1.2,1.2,0,0,1,.85.39l.3-.38a1.69,1.69,0,0,0-1.16-.47Zm4.34,3.07V28.23h-.51v2.2l-1.64-2.2h-.51v3.06h.52V29.1l1.63,2.19Zm2.18-3.07a1.55,1.55,0,1,0,1.62,1.54,1.56,1.56,0,0,0-1.62-1.54Zm0,.46a1.08,1.08,0,1,1,0,2.17,1.08,1.08,0,1,1,0-2.17Zm2.68,2.14V28.23h-.52v3.06h1.84v-.47Zm3.19-2.61a1.55,1.55,0,1,0,1.62,1.54,1.56,1.56,0,0,0-1.62-1.54Zm0,.46a1.08,1.08,0,1,1,0,2.17,1.08,1.08,0,1,1,0-2.17Zm4.14,1.11v.85a1.42,1.42,0,0,1-.7.21,1.09,1.09,0,1,1,0-2.17,1.33,1.33,0,0,1,.88.35l.29-.38a1.84,1.84,0,0,0-1.18-.43,1.55,1.55,0,1,0,0,3.09,2.07,2.07,0,0,0,1.19-.4V29.79Zm1.7,1.5V28.23H57v3.06Zm2.78-.69.29.69h.55l-1.34-3.06h-.53l-1.35,3.06h.54l.29-.69Zm-.2-.46H58.9l.58-1.36.58,1.36Zm2.43-1.93c-.66,0-1.11.33-1.11.85,0,1.09,1.65.71,1.65,1.39,0,.24-.21.37-.57.37a1.61,1.61,0,0,1-1-.45l-.22.45a1.88,1.88,0,0,0,1.25.48c.67,0,1.15-.34,1.15-.88,0-1.1-1.65-.74-1.65-1.41,0-.21.2-.32.5-.32a1.83,1.83,0,0,1,.9.28l.21-.45a2,2,0,0,0-1.07-.31Zm2.84,0v3.06h1.24a1.53,1.53,0,1,0,0-3.06Zm.52.46h.73a1,1,0,0,1,1.07,1.07,1,1,0,0,1-1,1.06h-.75V28.69Zm5.06,0v-.46H68.71v3.06h2.24v-.46H69.22V30h1.49v-.46H69.22v-.83Zm2.32,2.13V28.23H72.7v3.06h1.84v-.47ZM77,30.6l.29.69h.55l-1.34-3.06H76l-1.35,3.06h.54l.29-.69Zm-.2-.46H75.69l.58-1.36.58,1.36Zm3.09,1.15V28.23h-.52v3.06Zm3.46,0V28.23h-.51v2.2l-1.64-2.2h-.51v3.06h.52V29.1l1.63,2.19Zm2.86-2.6v-.46H84.2v3.06h.52V30H86.1v-.46H84.71v-.88Zm1.83-.48a1.55,1.55,0,1,0,1.62,1.54,1.56,1.56,0,0,0-1.62-1.54Zm0,.46a1.08,1.08,0,1,1,0,2.17,1.08,1.08,0,1,1,0-2.17Zm4.11,2.61h.59l-.69-1a1,1,0,0,0,.63-1c0-.66-.45-1-1.23-1H90.25v3.06h.52v-.92h.87l.56.93Zm-1.42-1.39V28.69h.73c.47,0,.74.19.74.59s-.27.62-.74.62Zm5.88,1.39V28.23H96l-1,2-1-2h-.61v3.06h.48V29l1,2h.34l1-2v2.29Zm2.78-.69.29.69h.55l-1.34-3.06H98.4l-1.35,3.06h.54l.29-.69Zm-.2-.46H98.08l.58-1.36.58,1.36ZM102,28.22a1.55,1.55,0,1,0,0,3.09,1.74,1.74,0,0,0,1.18-.5l-.31-.34a1.26,1.26,0,0,1-.85.36,1.08,1.08,0,1,1,0-2.15,1.2,1.2,0,0,1,.85.39l.3-.38a1.69,1.69,0,0,0-1.16-.47Zm2.21,3.07V28.23h-.52v3.06Zm2.17-3.07A1.55,1.55,0,1,0,108,29.76a1.56,1.56,0,0,0-1.62-1.54Zm0,.46a1.08,1.08,0,1,1,0,2.17,1.08,1.08,0,1,1,0-2.17Zm4.82,2.61V28.23h-.51v2.2L109,28.23h-.51v3.06H109V29.1l1.63,2.19ZM33.74,35.52l1.12-2h-.52L33.48,35l-.87-1.49h-.52l1.14,2.06v1h.51v-1Zm4.77-2.05a1.55,1.55,0,1,0,0,3.09,1.74,1.74,0,0,0,1.18-.5l-.31-.34a1.26,1.26,0,0,1-.85.36,1.08,1.08,0,1,1,0-2.15,1.2,1.2,0,0,1,.85.39l.3-.38a1.69,1.69,0,0,0-1.16-.47Zm3,0A1.55,1.55,0,1,0,43.12,35a1.56,1.56,0,0,0-1.62-1.54Zm0,.46a1.08,1.08,0,1,1,0,2.17,1.08,1.08,0,1,1,0-2.17Zm5.4,2.61V33.48H46.3l-1,2-1-2h-.61v3.06h.48V34.25l1,2h.34l1-2v2.29Zm3.41-3.06H49.8v1.79a.75.75,0,0,1-.81.83.76.76,0,0,1-.82-.83V33.48h-.52v1.79a1.33,1.33,0,0,0,2.66,0V33.48Zm3.39,3.06V33.48H53.2v2.2l-1.64-2.2h-.51v3.06h.52V34.34l1.63,2.19Zm1.32,0V33.48h-.52v3.06Zm2.16-3.07a1.55,1.55,0,1,0,0,3.09,1.74,1.74,0,0,0,1.18-.5l-.31-.34a1.26,1.26,0,0,1-.85.36,1.08,1.08,0,1,1,0-2.15,1.2,1.2,0,0,1,.85.39l.3-.38a1.69,1.69,0,0,0-1.16-.47Zm3.65,2.38.29.69h.55l-1.34-3.06h-.53l-1.35,3.06H59l.29-.69Zm-.2-.46H59.49L60.06,34l.58,1.36Zm2.72-1.92a1.55,1.55,0,1,0,0,3.09,1.74,1.74,0,0,0,1.18-.5l-.31-.34a1.27,1.27,0,0,1-.85.36,1.08,1.08,0,1,1,0-2.15,1.2,1.2,0,0,1,.85.39l.3-.38a1.69,1.69,0,0,0-1.16-.47Zm2.21,3.07V33.48h-.52v3.06Zm2.17-3.07A1.55,1.55,0,1,0,69.37,35a1.56,1.56,0,0,0-1.62-1.54Zm0,.46a1.08,1.08,0,1,1,0,2.17,1.08,1.08,0,1,1,0-2.17Zm4.82,2.61V33.48h-.51v2.2l-1.64-2.2h-.51v3.06h.52V34.34l1.63,2.19Zm2.7-3.06v3.06h.52v-.92h.7c.77,0,1.21-.4,1.21-1.09s-.44-1-1.21-1Zm.52.46h.68c.47,0,.74.19.74.59s-.27.62-.74.62h-.68V33.94ZM80,35.85H78.45l-.29.69h-.54L79,33.48h.53l1.34,3.06h-.55L80,35.85Zm-.2-.46L79.22,34l-.58,1.36Zm3.39,1.15h.59l-.69-1a1,1,0,0,0,.63-1c0-.66-.45-1-1.23-1H81.24v3.06h.52v-.92h.87l.56.93Zm-1.42-1.39V33.94h.73c.47,0,.74.19.74.59s-.27.62-.74.62Zm4.62.69.29.69h.55l-1.34-3.06h-.53L84,36.54h.54l.29-.69Zm-.2-.46H85L85.6,34l.58,1.36Zm3.85.68V33.48h-.52v3.06h1.84v-.47Zm3.82-.22.29.69h.55l-1.34-3.06h-.53l-1.35,3.06H92l.29-.69Zm-.2-.46H92.5L93.08,34l.58,1.36ZM98,33.46c-.66,0-1.11.33-1.11.85,0,1.09,1.65.71,1.65,1.39,0,.24-.21.37-.57.37a1.61,1.61,0,0,1-1-.45l-.22.45a1.88,1.88,0,0,0,1.25.49c.67,0,1.15-.34,1.15-.88,0-1.1-1.65-.74-1.65-1.41,0-.21.2-.32.5-.32a1.83,1.83,0,0,1,.9.28l.21-.45A2,2,0,0,0,98,33.46Zm3.66,2.39.29.69h.55l-1.34-3.06h-.53l-1.35,3.06h.54l.29-.69Zm-.2-.46h-1.15l.58-1.36.58,1.36Zm2,.68V33.48h-.52v3.06h1.84v-.47Zm4.42-2.59h-.52v1.79a.75.75,0,0,1-.81.83.76.76,0,0,1-.82-.83V33.48h-.52v1.79a1.33,1.33,0,0,0,2.66,0V33.48Zm.74,0v3.06h1.24a1.53,1.53,0,1,0,0-3.06Zm.52.46h.73A1,1,0,0,1,110.9,35a1,1,0,0,1-1,1.06h-.75Z"/><polygon class="cls-7" points="52.86 5.83 52.86 1.07 32.08 1.07 32.08 5.83 39.65 5.83 39.65 25.93 45.26 25.93 45.26 5.83 52.86 5.83"/><rect class="cls-8" x="56.23" y="8.76" width="5.61" height="17.17"/><path class="cls-7" d="M79.17.89c-7.53,0-13.25,5.4-13.25,12.57s5.61,12.71,13,12.71a14.55,14.55,0,0,0,10-4.44l-3.3-3.59a9.59,9.59,0,0,1-6.46,2.91,7.51,7.51,0,0,1-7.56-7.67,7.48,7.48,0,0,1,7.56-7.64A9,9,0,0,1,85.71,9L89,5A14.15,14.15,0,0,0,79.17.89Z"/><path class="cls-7" d="M101.8.82c-5.75,0-9.62,2.84-9.62,7.35,0,8.81,13.25,6.07,13.25,10.76,0,1.53-1.38,2.38-3.69,2.38a14.72,14.72,0,0,1-8.81-3.73l-2.24,4.58a17.45,17.45,0,0,0,11,3.94c5.5,0,9.73-2.63,9.73-7.49,0-8.95-13.21-6.39-13.21-11,0-1.35,1.28-2,3.16-2a17.34,17.34,0,0,1,7.74,2.56l2.17-4.65A17.77,17.77,0,0,0,101.8.82Z"/><circle class="cls-8" cx="59.27" cy="3.31" r="3.31"/></g></g></svg>